<svg width="50" height="50" viewBox="0 0 50 50" fill="none" xmlns="http://www.w3.org/2000/svg">
<path d="M42.0188 5.45304H31.6907C31.1489 5.45304 30.7095 5.8923 30.7095 6.43421V24.4959H23.9777V16.4788V1.72579C23.9777 1.18389 23.5383 0.744629 22.9965 0.744629H17.0943C16.5525 0.744629 16.1132 1.18389 16.1132 1.72579V15.4975H13.945V10.0658C13.945 9.52393 13.5056 9.08467 12.9638 9.08467C12.422 9.08467 11.9826 9.52393 11.9826 10.0658V15.4975H10.9211C10.3793 15.4975 9.93998 15.9368 9.93998 16.4787V21.2521H4.91804V17.621C4.91804 17.0791 4.47869 16.6398 3.93688 16.6398C3.39507 16.6398 2.95571 17.0791 2.95571 17.621V21.2522H0.981164C0.439354 21.2522 0 21.6915 0 22.2334V49.0188C0 49.5607 0.439354 50 0.981164 50H42.0188C42.5606 50 43 49.5607 43 49.0188V6.43421C43 5.8923 42.5606 5.45304 42.0188 5.45304ZM9.93988 48.0377H1.96233V23.2146H9.93988V48.0377ZM22.0154 48.0377H11.9022V17.4599H22.0153V48.0377H22.0154ZM22.0154 15.4975H18.0755V2.70696H22.0154V15.4975ZM30.7087 48.0377H23.9777V26.4581H30.7087V48.0377ZM41.0377 48.0377H32.6719V7.41537H41.0377V48.0377Z" fill="black"/>
<path d="M14.7924 19.8921C14.2506 19.8921 13.8113 20.3313 13.8113 20.8733V22.176C13.8113 22.7179 14.2505 23.1572 14.7924 23.1572C15.3343 23.1572 15.7736 22.7179 15.7736 22.176V20.8733C15.7736 20.3314 15.3343 19.8921 14.7924 19.8921Z" fill="black"/>
<path d="M18.9777 19.8921C18.4359 19.8921 17.9966 20.3313 17.9966 20.8733V22.176C17.9966 22.7179 18.4359 23.1572 18.9777 23.1572C19.5196 23.1572 19.9589 22.7179 19.9589 22.176V20.8733C19.9589 20.3314 19.5196 19.8921 18.9777 19.8921Z" fill="black"/>
<path d="M20.0239 10.8938C19.4821 10.8938 19.0427 11.3331 19.0427 11.875V13.1777C19.0427 13.7196 19.4821 14.1589 20.0239 14.1589C20.5657 14.1589 21.0051 13.7196 21.0051 13.1777V11.875C21.0051 11.3331 20.5658 10.8938 20.0239 10.8938Z" fill="black"/>
<path d="M20.0239 5.76685C19.4821 5.76685 19.0427 6.2061 19.0427 6.74801V8.05078C19.0427 8.59268 19.4821 9.03194 20.0239 9.03194C20.5657 9.03194 21.0051 8.59268 21.0051 8.05078V6.74801C21.0051 6.2061 20.5658 5.76685 20.0239 5.76685Z" fill="black"/>
<path d="M14.7924 25.6042C14.2506 25.6042 13.8113 26.0435 13.8113 26.5854V27.8882C13.8113 28.4301 14.2505 28.8693 14.7924 28.8693C15.3343 28.8693 15.7736 28.4301 15.7736 27.8882V26.5854C15.7736 26.0435 15.3343 25.6042 14.7924 25.6042Z" fill="black"/>
<path d="M18.9777 25.6042C18.4359 25.6042 17.9966 26.0435 17.9966 26.5854V27.8882C17.9966 28.4301 18.4359 28.8693 18.9777 28.8693C19.5196 28.8693 19.9589 28.4301 19.9589 27.8882V26.5854C19.9589 26.0435 19.5196 25.6042 18.9777 25.6042Z" fill="black"/>
<path d="M14.7924 30.9156C14.2506 30.9156 13.8113 31.3549 13.8113 31.8968V33.1997C13.8113 33.7416 14.2505 34.1808 14.7924 34.1808C15.3343 34.1808 15.7736 33.7416 15.7736 33.1997V31.8969C15.7736 31.355 15.3343 30.9156 14.7924 30.9156Z" fill="black"/>
<path d="M18.9777 30.9156C18.4359 30.9156 17.9966 31.3549 17.9966 31.8968V33.1997C17.9966 33.7416 18.4359 34.1808 18.9777 34.1808C19.5196 34.1808 19.9589 33.7416 19.9589 33.1997V31.8969C19.9589 31.355 19.5196 30.9156 18.9777 30.9156Z" fill="black"/>
<path d="M14.7924 36.6281C14.2506 36.6281 13.8113 37.0673 13.8113 37.6092V38.9121C13.8113 39.454 14.2505 39.8932 14.7924 39.8932C15.3343 39.8932 15.7736 39.454 15.7736 38.9121V37.6092C15.7736 37.0673 15.3343 36.6281 14.7924 36.6281Z" fill="black"/>
<path d="M18.9777 36.6281C18.4359 36.6281 17.9966 37.0673 17.9966 37.6092V38.9121C17.9966 39.454 18.4359 39.8932 18.9777 39.8932C19.5196 39.8932 19.9589 39.454 19.9589 38.9121V37.6092C19.9589 37.0673 19.5196 36.6281 18.9777 36.6281Z" fill="black"/>
<path d="M14.7924 42.3405C14.2506 42.3405 13.8113 42.7797 13.8113 43.3216V44.6245C13.8113 45.1664 14.2505 45.6056 14.7924 45.6056C15.3343 45.6056 15.7736 45.1664 15.7736 44.6245V43.3217C15.7736 42.7797 15.3343 42.3405 14.7924 42.3405Z" fill="black"/>
<path d="M18.9777 42.3405C18.4359 42.3405 17.9966 42.7797 17.9966 43.3216V44.6245C17.9966 45.1664 18.4359 45.6056 18.9777 45.6056C19.5196 45.6056 19.9589 45.1664 19.9589 44.6245V43.3217C19.9589 42.7797 19.5196 42.3405 18.9777 42.3405Z" fill="black"/>
<path d="M35.1955 19.8921C34.6537 19.8921 34.2144 20.3313 34.2144 20.8733V22.176C34.2144 22.7179 34.6537 23.1572 35.1955 23.1572C35.7373 23.1572 36.1767 22.7179 36.1767 22.176V20.8733C36.1767 20.3314 35.7373 19.8921 35.1955 19.8921Z" fill="black"/>
<path d="M38.8574 19.8921C38.3156 19.8921 37.8762 20.3313 37.8762 20.8733V22.176C37.8762 22.7179 38.3156 23.1572 38.8574 23.1572C39.3992 23.1572 39.8386 22.7179 39.8386 22.176V20.8733C39.8386 20.3314 39.3992 19.8921 38.8574 19.8921Z" fill="black"/>
<path d="M35.1955 25.6042C34.6537 25.6042 34.2144 26.0435 34.2144 26.5854V27.8882C34.2144 28.4301 34.6537 28.8693 35.1955 28.8693C35.7373 28.8693 36.1767 28.4301 36.1767 27.8882V26.5854C36.1767 26.0435 35.7373 25.6042 35.1955 25.6042Z" fill="black"/>
<path d="M38.8574 25.6042C38.3156 25.6042 37.8762 26.0435 37.8762 26.5854V27.8882C37.8762 28.4301 38.3156 28.8693 38.8574 28.8693C39.3992 28.8693 39.8386 28.4301 39.8386 27.8882V26.5854C39.8386 26.0435 39.3992 25.6042 38.8574 25.6042Z" fill="black"/>
<path d="M35.1955 30.9156C34.6537 30.9156 34.2144 31.3549 34.2144 31.8968V33.1997C34.2144 33.7416 34.6537 34.1808 35.1955 34.1808C35.7373 34.1808 36.1767 33.7416 36.1767 33.1997V31.8969C36.1767 31.355 35.7373 30.9156 35.1955 30.9156Z" fill="black"/>
<path d="M38.8574 30.9156C38.3156 30.9156 37.8762 31.3549 37.8762 31.8968V33.1997C37.8762 33.7416 38.3156 34.1808 38.8574 34.1808C39.3992 34.1808 39.8386 33.7416 39.8386 33.1997V31.8969C39.8386 31.355 39.3992 30.9156 38.8574 30.9156Z" fill="black"/>
<path d="M35.1955 8.98804C34.6537 8.98804 34.2144 9.4273 34.2144 9.9692V11.2721C34.2144 11.814 34.6537 12.2532 35.1955 12.2532C35.7373 12.2532 36.1767 11.814 36.1767 11.2721V9.9692C36.1767 9.4273 35.7373 8.98804 35.1955 8.98804Z" fill="black"/>
<path d="M38.8574 8.98804C38.3156 8.98804 37.8762 9.4273 37.8762 9.9692V11.2721C37.8762 11.814 38.3156 12.2532 38.8574 12.2532C39.3992 12.2532 39.8386 11.814 39.8386 11.2721V9.9692C39.8386 9.4273 39.3992 8.98804 38.8574 8.98804Z" fill="black"/>
<path d="M35.1955 14.2994C34.6537 14.2994 34.2144 14.7387 34.2144 15.2806V16.5834C34.2144 17.1253 34.6537 17.5645 35.1955 17.5645C35.7373 17.5645 36.1767 17.1253 36.1767 16.5834V15.2806C36.1767 14.7387 35.7373 14.2994 35.1955 14.2994Z" fill="black"/>
<path d="M38.8574 14.2994C38.3156 14.2994 37.8762 14.7387 37.8762 15.2806V16.5834C37.8762 17.1253 38.3156 17.5645 38.8574 17.5645C39.3992 17.5645 39.8386 17.1253 39.8386 16.5834V15.2806C39.8386 14.7387 39.3992 14.2994 38.8574 14.2994Z" fill="black"/>
<path d="M35.1955 36.6281C34.6537 36.6281 34.2144 37.0673 34.2144 37.6092V38.9121C34.2144 39.454 34.6537 39.8932 35.1955 39.8932C35.7373 39.8932 36.1767 39.454 36.1767 38.9121V37.6092C36.1767 37.0673 35.7373 36.6281 35.1955 36.6281Z" fill="black"/>
<path d="M38.8574 36.6281C38.3156 36.6281 37.8762 37.0673 37.8762 37.6092V38.9121C37.8762 39.454 38.3156 39.8932 38.8574 39.8932C39.3992 39.8932 39.8386 39.454 39.8386 38.9121V37.6092C39.8386 37.0673 39.3992 36.6281 38.8574 36.6281Z" fill="black"/>
<path d="M35.1955 42.3405C34.6537 42.3405 34.2144 42.7797 34.2144 43.3216V44.6245C34.2144 45.1664 34.6537 45.6056 35.1955 45.6056C35.7373 45.6056 36.1767 45.1664 36.1767 44.6245V43.3217C36.1767 42.7797 35.7373 42.3405 35.1955 42.3405Z" fill="black"/>
<path d="M38.8574 42.3405C38.3156 42.3405 37.8762 42.7797 37.8762 43.3216V44.6245C37.8762 45.1664 38.3156 45.6056 38.8574 45.6056C39.3992 45.6056 39.8386 45.1664 39.8386 44.6245V43.3217C39.8386 42.7797 39.3992 42.3405 38.8574 42.3405Z" fill="black"/>
<path d="M7.78208 25.1235H4.22482C3.68301 25.1235 3.24365 25.5628 3.24365 26.1047C3.24365 26.6466 3.68301 27.0859 4.22482 27.0859H7.78218C8.32399 27.0859 8.76334 26.6466 8.76334 26.1047C8.76334 25.5628 8.32399 25.1235 7.78208 25.1235Z" fill="black"/>
<path d="M7.78208 28.9249H4.22482C3.68301 28.9249 3.24365 29.3642 3.24365 29.9061C3.24365 30.448 3.68301 30.8873 4.22482 30.8873H7.78218C8.32399 30.8873 8.76334 30.448 8.76334 29.9061C8.76334 29.3642 8.32399 28.9249 7.78208 28.9249Z" fill="black"/>
<path d="M7.78208 32.849H4.22482C3.68301 32.849 3.24365 33.2883 3.24365 33.8302C3.24365 34.3721 3.68301 34.8113 4.22482 34.8113H7.78218C8.32399 34.8113 8.76334 34.3721 8.76334 33.8302C8.76334 33.2883 8.32399 32.849 7.78208 32.849Z" fill="black"/>
<path d="M7.78208 36.6504H4.22482C3.68301 36.6504 3.24365 37.0896 3.24365 37.6316C3.24365 38.1735 3.68301 38.6127 4.22482 38.6127H7.78218C8.32399 38.6127 8.76334 38.1735 8.76334 37.6316C8.76334 37.0896 8.32399 36.6504 7.78208 36.6504Z" fill="black"/>
<path d="M7.78208 40.5742H4.22482C3.68301 40.5742 3.24365 41.0135 3.24365 41.5554C3.24365 42.0973 3.68301 42.5365 4.22482 42.5365H7.78218C8.32399 42.5365 8.76334 42.0973 8.76334 41.5554C8.76334 41.0136 8.32399 40.5742 7.78208 40.5742Z" fill="black"/>
<path d="M7.78208 44.3757H4.22482C3.68301 44.3757 3.24365 44.815 3.24365 45.3569C3.24365 45.8988 3.68301 46.3381 4.22482 46.3381H7.78218C8.32399 46.3381 8.76334 45.8988 8.76334 45.3569C8.76334 44.815 8.32399 44.3757 7.78208 44.3757Z" fill="black"/>
<path d="M28.4992 27.844H25.988C25.4462 27.844 25.0068 28.2833 25.0068 28.8252C25.0068 29.3671 25.4462 29.8063 25.988 29.8063H28.4992C29.041 29.8063 29.4803 29.3671 29.4803 28.8252C29.4803 28.2833 29.041 27.844 28.4992 27.844Z" fill="black"/>
<path d="M28.4992 32.4478H25.988C25.4462 32.4478 25.0068 32.887 25.0068 33.4289C25.0068 33.9708 25.4462 34.4101 25.988 34.4101H28.4992C29.041 34.4101 29.4803 33.9708 29.4803 33.4289C29.4803 32.8871 29.041 32.4478 28.4992 32.4478Z" fill="black"/>
<path d="M28.4992 37.1561H25.988C25.4462 37.1561 25.0068 37.5954 25.0068 38.1373C25.0068 38.6792 25.4462 39.1185 25.988 39.1185H28.4992C29.041 39.1185 29.4803 38.6792 29.4803 38.1373C29.4803 37.5955 29.041 37.1561 28.4992 37.1561Z" fill="black"/>
<path d="M28.4992 41.9691H25.988C25.4462 41.9691 25.0068 42.4084 25.0068 42.9503C25.0068 43.4922 25.4462 43.9314 25.988 43.9314H28.4992C29.041 43.9314 29.4803 43.4922 29.4803 42.9503C29.4803 42.4084 29.041 41.9691 28.4992 41.9691Z" fill="black"/>
<path d="M12.9638 4.96375C12.422 4.96375 11.9827 5.403 11.9827 5.94491V7.12233C11.9827 7.66423 12.422 8.10349 12.9638 8.10349C13.5056 8.10349 13.945 7.66423 13.945 7.12233V5.94491C13.945 5.403 13.5056 4.96375 12.9638 4.96375Z" fill="black"/>
</svg>
