<svg width="66" height="47" viewBox="0 0 66 47" fill="none" xmlns="http://www.w3.org/2000/svg">
<path d="M64.3765 3.5911L43.729 0.0379415C43.5891 0.00996389 43.4492 0.0379415 43.3093 0.0379415C43.1695 0.0379415 43.0575 0.00996389 42.9177 0.0379415L22.6898 3.53514L2.46203 0.0379415C1.84652 -0.073969 1.23101 0.0659189 0.755395 0.40165C0.279776 0.737382 0 1.24098 0 1.77255V40.8853C0 41.7246 0.69944 42.452 1.65068 42.6199L22.2982 46.173C22.438 46.201 22.5779 46.201 22.6898 46.201C22.8297 46.201 22.9696 46.201 23.0815 46.173L43.3093 42.6758L63.5372 46.173C63.677 46.201 63.8169 46.201 63.9288 46.201C64.4045 46.201 64.8521 46.0611 65.2438 45.8093C65.7194 45.4736 65.9992 44.97 65.9992 44.4384V5.32571C66.0272 4.48638 65.3277 3.75896 64.3765 3.5911ZM2.1263 3.19941L21.7666 6.75257V8.82291H13.2054V6.61268H6.60272V13.2154H8.81295V20.6295L2.1263 19.6223V3.19941ZM21.7946 41.9484L2.15428 39.3185V22.5599L8.84093 23.5671V30.8413H6.63069V37.444H13.2334V35.2338H21.7946V41.9484ZM13.2054 33.0236V30.8133H10.9952V13.2154H13.2054V11.0052H30.8034V13.2154H33.0136V30.8133H30.8034V33.0236H13.2054ZM41.267 39.4304L24.2286 41.9484V35.2338H30.8313V37.444H37.434V30.8413H35.2238V24.2386L41.267 23.5391V39.4304ZM41.267 19.8741L35.2238 20.8253V13.2434H37.434V6.64066H30.8313V8.85089H24.2286V6.16504L41.267 3.95481V19.8741ZM63.5931 41.9484L43.9249 39.0108V22.5599L63.5931 26.2809V41.9484ZM63.5931 22.5879L43.9528 19.6503V3.19941L63.5931 6.75257V22.5879Z" fill="black"/>
</svg>
