<svg width="30" height="30" viewBox="0 0 30 30" fill="none" xmlns="http://www.w3.org/2000/svg">
<path d="M15 22H7C5.14348 22 3.36301 22.7375 2.05025 24.0503C0.737498 25.363 0 27.1435 0 29C0 29.2652 0.105357 29.5196 0.292893 29.7071C0.48043 29.8946 0.734784 30 1 30C1.26522 30 1.51957 29.8946 1.70711 29.7071C1.89464 29.5196 2 29.2652 2 29C2 27.6739 2.52678 26.4021 3.46447 25.4645C4.40215 24.5268 5.67392 24 7 24H15C16.3261 24 17.5979 24.5268 18.5355 25.4645C19.4732 26.4021 20 27.6739 20 29C20 29.2652 20.1054 29.5196 20.2929 29.7071C20.4804 29.8946 20.7348 30 21 30C21.2652 30 21.5196 29.8946 21.7071 29.7071C21.8946 29.5196 22 29.2652 22 29C22 27.1435 21.2625 25.363 19.9497 24.0503C18.637 22.7375 16.8565 22 15 22Z" fill="black"/>
<path d="M24.9999 12H22.1799C22.3702 11.6577 22.5308 11.2997 22.6599 10.93C23.4884 10.8341 24.2797 10.5325 24.9618 10.0526C25.644 9.57273 26.1952 8.92986 26.5654 8.18251C26.9356 7.43517 27.113 6.60709 27.0813 5.77369C27.0497 4.94028 26.8102 4.12802 26.3844 3.41086C25.9587 2.6937 25.3603 2.09442 24.6438 1.66759C23.9273 1.24077 23.1154 0.999946 22.2821 0.967062C21.4487 0.934177 20.6204 1.11027 19.8725 1.47931C19.1246 1.84835 18.4808 2.39862 17.9999 3.08C17.6695 3.02495 17.3349 2.99818 16.9999 3C15.7586 2.99935 14.5477 3.38371 13.534 4.10011C12.5203 4.81652 11.7537 5.82969 11.3399 7H10.9999C9.79608 6.99922 8.61238 7.30891 7.56318 7.89917C6.51397 8.48943 5.63473 9.3403 5.01038 10.3696C4.38603 11.3989 4.03768 12.5718 3.99898 13.775C3.96028 14.9782 4.23255 16.1711 4.78947 17.2383C5.34639 18.3056 6.16915 19.2112 7.17826 19.8677C8.18737 20.5241 9.34872 20.9093 10.5501 20.9858C11.7515 21.0624 12.9524 20.8278 14.0367 20.3048C15.1209 19.7818 16.052 18.9879 16.7399 18H19.9999C21.0608 18 22.0782 18.4214 22.8284 19.1716C23.5785 19.9217 23.9999 20.9391 23.9999 22C23.9999 22.2652 24.1053 22.5196 24.2928 22.7071C24.4804 22.8946 24.7347 23 24.9999 23C25.2651 23 25.5195 22.8946 25.707 22.7071C25.8946 22.5196 25.9999 22.2652 25.9999 22C25.9999 20.4087 25.3678 18.8826 24.2426 17.7574C23.1173 16.6321 21.5912 16 19.9999 16H17.7099C17.8081 15.6489 17.8817 15.2914 17.9299 14.93C18.7739 14.7917 19.5785 14.4746 20.2899 14H24.9999C25.7956 14 26.5586 14.3161 27.1212 14.8787C27.6839 15.4413 27.9999 16.2044 27.9999 17C27.9999 17.2652 28.1053 17.5196 28.2928 17.7071C28.4804 17.8946 28.7347 18 28.9999 18C29.2651 18 29.5195 17.8946 29.707 17.7071C29.8946 17.5196 29.9999 17.2652 29.9999 17C29.9999 15.6739 29.4731 14.4021 28.5355 13.4645C27.5978 12.5268 26.326 12 24.9999 12ZM24.9999 6C24.9982 6.61895 24.805 7.2222 24.447 7.72707C24.0889 8.23193 23.5835 8.61369 22.9999 8.82C22.9662 7.80027 22.6731 6.80596 22.1481 5.93107C21.6232 5.05617 20.8838 4.32959 19.9999 3.82C20.428 3.43693 20.9571 3.18483 21.5243 3.09364C22.0914 3.00246 22.6729 3.07604 23.1994 3.30562C23.726 3.53521 24.1756 3.91116 24.4948 4.38879C24.8139 4.86642 24.9893 5.42565 24.9999 6ZM16.9999 5C17.9769 5.0076 18.9173 5.3725 19.6437 6.02586C20.3701 6.67921 20.8323 7.57583 20.943 8.54655C21.0538 9.51726 20.8054 10.4949 20.2448 11.2951C19.6842 12.0953 18.8501 12.6626 17.8999 12.89C17.7004 11.6518 17.172 10.49 16.3698 9.52601C15.5676 8.56199 14.5212 7.83119 13.3399 7.41C13.6493 6.69574 14.1604 6.08728 14.8105 5.6592C15.4606 5.23112 16.2215 5.00203 16.9999 5ZM10.9999 19C10.011 19 9.04432 18.7068 8.22207 18.1574C7.39983 17.6079 6.75896 16.827 6.38053 15.9134C6.00209 14.9998 5.90307 13.9945 6.096 13.0246C6.28892 12.0546 6.76513 11.1637 7.46439 10.4645C8.16365 9.76521 9.05457 9.289 10.0245 9.09608C10.9944 8.90315 11.9997 9.00217 12.9133 9.3806C13.827 9.75904 14.6079 10.3999 15.1573 11.2222C15.7067 12.0444 15.9999 13.0111 15.9999 14C15.9999 15.3261 15.4731 16.5979 14.5355 17.5355C13.5978 18.4732 12.326 19 10.9999 19Z" fill="black"/>
</svg>
