<svg width="900" height="600" viewBox="0 0 900 600" fill="none" xmlns="http://www.w3.org/2000/svg">
<path d="M0 0H900V600H0V0Z" fill="black"/>
<path d="M0 0H900V206.25H0V0Z" fill="white"/>
<path d="M0 0H900V187.5H0V0Z" fill="#007168"/>
<path d="M0 393.5H900V600H0V393.5Z" fill="white"/>
<path d="M0 412.5H900V600H0V412.5Z" fill="#FCE100"/>
<path d="M0 0V600L393.75 300L0 0Z" fill="#D21034"/>
<path d="M204.37 412.485L131.216 358.925L58.16 412.5L86.492 326.376L12.964 273.452L103.628 273.784L131.241 187.5L158.941 273.83L249.535 273.427L175.991 326.45L204.37 412.485Z" fill="#FCE100"/>
<path fill-rule="evenodd" clip-rule="evenodd" d="M67.724 352.427H120.423C124.663 357.184 134.123 359.124 143.134 352.371C159.652 343.326 191.607 352.427 191.607 352.427L197.899 345.742L182.561 295.402L177.055 289.503C177.055 289.503 165.258 282.425 142.84 284.784C120.422 287.143 112.557 283.998 112.557 283.998C112.557 283.998 92.894 286.358 87.387 289.11C86.783 289.6 81.095 295.402 81.095 295.402L67.724 352.427Z" fill="white" stroke="black" stroke-width="1.575" stroke-linejoin="round"/>
<path d="M78.3429 339.45C78.3429 339.45 128.682 333.157 143.233 352.427C135.015 358.051 127.78 358.514 120.03 352.822C121.264 350.765 138.12 333.157 180.988 339.057" stroke="black" stroke-width="1.575" stroke-linecap="round" stroke-linejoin="round"/>
<path d="M132.221 289.11L131.828 344.563ZM177.055 289.896L186.494 333.944ZM87.9069 289.204L82.6689 311.92Z" fill="black"/>
<path d="M132.221 289.11L131.828 344.563M177.055 289.896L186.494 333.944M87.9069 289.204L82.6689 311.92" stroke="black" stroke-width="1.575" stroke-linecap="round" stroke-linejoin="round"/>
<path fill-rule="evenodd" clip-rule="evenodd" d="M33.4969 358.465L45.8899 372.996C47.3459 373.864 48.6379 373.809 49.9309 372.996L68.2979 350.956L76.0129 341.405C77.2069 339.99 77.5879 338.412 77.4819 336.997L92.2299 323.892L95.3609 324.193C93.9359 323.824 92.8909 323.13 94.0119 321.568L97.3179 318.997L99.8889 322.302L95.8489 327.078H91.8089L84.0939 334.058L87.466 337.038L92.5429 350.956L98.7879 346.547L94.7479 332.222L103.564 322.67L100.257 317.527L102.462 314.588C102.462 314.588 132.975 333.798 144.73 328.656C145.048 328.771 145.44 314.956 145.44 314.956C145.44 314.956 113.85 311.65 113.114 305.405C112.378 299.16 120.094 298.425 120.094 298.425L116.787 293.65L117.523 291.078L123.033 298.058L135.523 287.404L208.991 371.159C213.002 369.533 213.859 368.552 214.135 364.547C214.031 364.447 142.135 281.894 142.135 281.894L147.645 276.018C148.731 274.793 149.113 274.273 149.115 272.343L157.563 264.997C160.104 265.87 161.724 267.393 163.073 269.404L186.301 249.719C186.913 250.331 188.773 250.943 190.035 250.255L228.437 213.394L186.583 242.956L185.114 241.854C185.114 240.629 186.632 240.327 185.114 238.181C183.488 236.229 181.074 240.017 180.707 240.017C180.34 240.017 174.649 238.007 173.402 235.459L172.992 242.221L162.339 252.14L154.258 251.772L142.502 263.16L141.033 267.568L142.87 271.242C142.87 271.242 136.624 276.752 136.624 276.384C136.624 276.016 135.362 274.761 135.308 274.598L140.665 269.772L141.4 266.466L139.612 263.675C139.07 264.069 132.216 271.242 131.848 270.507L112.013 248.099L113.114 244.059L100.625 230.466C96.0719 228.894 88.8699 228.63 87.3999 238.548C86.2559 240.878 76.7469 238.915 76.7469 238.915L71.6039 240.017L42.5839 281.16L58.7469 300.629L91.8079 258.752L92.7899 246.888L99.7269 254.645C102.04 254.942 104.243 254.968 106.339 253.91L125.927 275.773L122.665 278.956L125.628 282.186C126.73 281.452 127.782 280.571 128.884 279.835C129.252 280.326 129.864 281.257 130.232 281.747C128.591 282.64 127.439 283.829 125.798 284.723C123.172 283.011 120.636 280.879 120.828 277.487L109.808 286.67L109.441 288.507L76.7469 315.69L73.8079 316.058L73.0739 324.507L94.3799 306.875V304.302L96.5839 306.139L113.114 292.916C113.114 292.916 114.216 294.385 113.85 294.385C113.484 294.385 99.1549 307.609 99.1549 307.609L98.7879 309.078L96.2169 311.282L94.7469 310.18L74.91 327.812H71.9719L60.9519 338.834C58.1089 339.081 55.6459 339.382 53.2369 341.037L33.4969 358.465Z" fill="black" stroke="black" stroke-width="1.575" stroke-linejoin="round"/>
</svg>
