<svg width="282" height="38" viewBox="0 0 282 38" fill="none" xmlns="http://www.w3.org/2000/svg">
<path d="M15.12 29.6C12.3467 29.6 9.85333 28.9733 7.64 27.72C5.45333 26.4667 3.73333 24.7333 2.48 22.52C1.22667 20.28 0.6 17.7733 0.6 15C0.6 12.2267 1.22667 9.73333 2.48 7.52C3.73333 5.28 5.45333 3.53333 7.64 2.28C9.85333 1.02667 12.3467 0.399999 15.12 0.399999C17.6 0.399999 19.8667 0.946665 21.92 2.04C23.9733 3.10667 25.6267 4.58667 26.88 6.48C28.1333 8.37333 28.8133 10.48 28.92 12.8H20.04C19.8267 12.0533 19.48 11.4 19 10.84C18.52 10.2533 17.9333 9.8 17.24 9.48C16.5733 9.16 15.84 9 15.04 9C14 9 13.0667 9.26667 12.24 9.8C11.4133 10.3067 10.76 11.0133 10.28 11.92C9.82667 12.8267 9.6 13.8533 9.6 15C9.6 16.1467 9.82667 17.1733 10.28 18.08C10.76 18.9867 11.4133 19.7067 12.24 20.24C13.0667 20.7467 14 21 15.04 21C15.84 21 16.5733 20.84 17.24 20.52C17.9333 20.2 18.52 19.76 19 19.2C19.48 18.6133 19.8267 17.9467 20.04 17.2H28.92C28.8133 19.52 28.1333 21.6267 26.88 23.52C25.6267 25.4133 23.9733 26.9067 21.92 28C19.8667 29.0667 17.6 29.6 15.12 29.6ZM42.4938 29.4C40.3604 29.4 38.4404 28.96 36.7338 28.08C35.0271 27.1733 33.6938 25.9333 32.7337 24.36C31.7738 22.76 31.2938 20.9733 31.2938 19C31.2938 17.0267 31.7738 15.2533 32.7337 13.68C33.6938 12.08 35.0271 10.84 36.7338 9.96C38.4404 9.05333 40.3604 8.6 42.4938 8.6C44.6271 8.6 46.5471 9.05333 48.2538 9.96C49.9604 10.84 51.2938 12.08 52.2538 13.68C53.2138 15.2533 53.6938 17.0267 53.6938 19C53.6938 20.9733 53.2138 22.76 52.2538 24.36C51.2938 25.9333 49.9604 27.1733 48.2538 28.08C46.5471 28.96 44.6271 29.4 42.4938 29.4ZM42.4938 22.4C43.1338 22.4 43.7071 22.2533 44.2138 21.96C44.7471 21.6667 45.1604 21.2667 45.4538 20.76C45.7471 20.2267 45.8938 19.64 45.8938 19C45.8938 18.36 45.7471 17.7867 45.4538 17.28C45.1604 16.7467 44.7471 16.3333 44.2138 16.04C43.7071 15.7467 43.1338 15.6 42.4938 15.6C41.8538 15.6 41.2671 15.7467 40.7338 16.04C40.2271 16.3333 39.8271 16.7467 39.5338 17.28C39.2404 17.7867 39.0938 18.36 39.0938 19C39.0938 19.64 39.2404 20.2267 39.5338 20.76C39.8271 21.2667 40.2271 21.6667 40.7338 21.96C41.2671 22.2533 41.8538 22.4 42.4938 22.4ZM64.0984 29.4C62.7651 29.4 61.5784 29.04 60.5384 28.32C59.4984 27.5733 58.6984 26.5467 58.1384 25.24C57.5784 23.9067 57.2984 22.4 57.2984 20.72V9H64.9784L65.0184 19.44C65.0184 20.2667 65.2984 20.96 65.8584 21.52C66.4184 22.08 67.1118 22.36 67.9384 22.36C68.4984 22.36 69.0051 22.24 69.4584 22C69.9118 21.7333 70.2584 21.3867 70.4984 20.96C70.7651 20.5067 70.8984 20 70.8984 19.44V9H78.4984V29H70.8984V21.52C70.6584 23.8933 69.9251 25.8 68.6984 27.24C67.4718 28.68 65.9384 29.4 64.0984 29.4ZM84.1047 29V9H91.7047V16.48C91.9447 14.1067 92.678 12.2 93.9047 10.76C95.1314 9.32 96.6647 8.6 98.5047 8.6C99.838 8.6 101.025 8.97333 102.065 9.72C103.105 10.44 103.905 11.4667 104.465 12.8C105.025 14.1067 105.305 15.6 105.305 17.28V29H97.6247V18.56C97.598 17.7067 97.3047 17.0133 96.7447 16.48C96.1847 15.92 95.4914 15.64 94.6647 15.64C94.1047 15.64 93.598 15.7733 93.1447 16.04C92.6914 16.28 92.3314 16.6267 92.0647 17.08C91.8247 17.5067 91.7047 18 91.7047 18.56V29H84.1047ZM120.08 29.36C117.307 29.36 115.254 28.8 113.92 27.68C112.587 26.5333 111.92 24.84 111.92 22.6V15.8H107.72V9H109.44C110.534 9 111.374 8.70667 111.96 8.12C112.547 7.53333 112.84 6.69333 112.84 5.6V4.2H119.52V9H125.52V15.8H119.52V20.6C119.52 21.2667 119.694 21.7333 120.04 22C120.387 22.24 121.014 22.36 121.92 22.36C122.934 22.36 124.134 22.3067 125.52 22.2V29C124.64 29.1067 123.694 29.1867 122.68 29.24C121.694 29.32 120.827 29.36 120.08 29.36ZM129.925 29V9H137.525V16.32C137.765 14.2133 138.432 12.4 139.525 10.88C140.618 9.36 142.152 8.6 144.125 8.6C145.512 8.6 146.618 8.90667 147.445 9.52C148.298 10.1067 148.912 10.9733 149.285 12.12C149.658 13.24 149.845 14.6533 149.845 16.36V18.8H142.245V17.96C142.245 17.24 142.045 16.6933 141.645 16.32C141.245 15.92 140.738 15.72 140.125 15.72C139.592 15.72 139.125 15.8533 138.725 16.12C138.352 16.36 138.058 16.7067 137.845 17.16C137.632 17.6133 137.525 18.12 137.525 18.68V29H129.925ZM158.434 37.4C156.941 37.4 155.528 37.0933 154.194 36.48C152.888 35.8933 151.808 34.9333 150.954 33.6C150.101 32.2667 149.674 30.5867 149.674 28.56V27.56H156.834V29.2C156.834 29.6 156.914 29.9333 157.074 30.2C157.234 30.4933 157.434 30.7067 157.674 30.84C157.914 31 158.168 31.08 158.434 31.08C158.834 31.08 159.154 30.96 159.394 30.72C159.661 30.48 159.794 30.1733 159.794 29.8V29.76C159.794 29.52 159.754 29.2933 159.674 29.08C159.621 28.8667 159.528 28.6267 159.394 28.36L149.434 9H157.874L162.634 19.28L166.314 9H174.194L167.274 25.84C167.141 26.2133 167.048 26.5333 166.994 26.8C166.941 27.0667 166.914 27.4667 166.914 28V29.6C166.914 31.2267 166.528 32.6267 165.754 33.8C164.981 34.9733 163.941 35.8667 162.634 36.48C161.354 37.0933 159.954 37.4 158.434 37.4ZM187.591 29V0.999998H197.591C200.791 0.999998 203.591 1.57333 205.991 2.72C208.417 3.86667 210.284 5.50667 211.591 7.64C212.924 9.74667 213.591 12.2 213.591 15C213.591 17.8 212.924 20.2667 211.591 22.4C210.284 24.5067 208.417 26.1333 205.991 27.28C203.591 28.4267 200.791 29 197.591 29H187.591ZM197.631 21.08C199.124 21.08 200.377 20.8533 201.391 20.4C202.404 19.92 203.164 19.2267 203.671 18.32C204.177 17.4133 204.431 16.3067 204.431 15C204.431 13.6933 204.177 12.5867 203.671 11.68C203.164 10.7733 202.404 10.0933 201.391 9.64C200.377 9.16 199.124 8.92 197.631 8.92H196.391V21.08H197.631ZM221.772 29.44C220.145 29.44 218.785 29.0267 217.692 28.2C216.599 27.3733 216.052 26.16 216.052 24.56C216.052 23.0133 216.545 21.8133 217.532 20.96C218.545 20.1067 219.719 19.52 221.052 19.2C222.385 18.88 223.879 18.64 225.532 18.48C226.652 18.4 227.545 18.24 228.212 18C228.879 17.7333 229.212 17.2 229.212 16.4C229.212 15.76 228.985 15.3067 228.532 15.04C228.079 14.7467 227.545 14.6 226.932 14.6C226.079 14.6 225.385 14.8267 224.852 15.28C224.345 15.7333 224.079 16.3733 224.052 17.2H217.012C217.039 15.36 217.519 13.8 218.452 12.52C219.385 11.2133 220.612 10.24 222.132 9.6C223.652 8.93333 225.305 8.6 227.092 8.6C228.825 8.6 230.385 8.92 231.772 9.56C233.159 10.2 234.239 11.1467 235.012 12.4C235.812 13.6267 236.212 15.1067 236.212 16.84V22.4H238.132V29H229.252V21.24C228.932 23.6133 228.159 25.5733 226.932 27.12C225.705 28.6667 223.985 29.44 221.772 29.44ZM225.732 23.68C226.292 23.68 226.839 23.4533 227.372 23C227.932 22.5467 228.385 21.96 228.732 21.24C229.079 20.52 229.252 19.8 229.252 19.08V18.16C228.985 18.4267 228.692 18.6133 228.372 18.72C228.079 18.8267 227.639 18.96 227.052 19.12C227.025 19.12 226.985 19.1333 226.932 19.16C226.905 19.16 226.879 19.16 226.852 19.16C225.919 19.32 225.172 19.5867 224.612 19.96C224.052 20.3333 223.772 20.9067 223.772 21.68C223.772 22.3733 223.959 22.88 224.332 23.2C224.705 23.52 225.172 23.68 225.732 23.68ZM251.721 29.36C248.948 29.36 246.894 28.8 245.561 27.68C244.228 26.5333 243.561 24.84 243.561 22.6V15.8H239.361V9H241.081C242.174 9 243.014 8.70667 243.601 8.12C244.188 7.53333 244.481 6.69333 244.481 5.6V4.2H251.161V9H257.161V15.8H251.161V20.6C251.161 21.2667 251.334 21.7333 251.681 22C252.028 22.24 252.654 22.36 253.561 22.36C254.574 22.36 255.774 22.3067 257.161 22.2V29C256.281 29.1067 255.334 29.1867 254.321 29.24C253.334 29.32 252.468 29.36 251.721 29.36ZM265.366 29.44C263.739 29.44 262.379 29.0267 261.286 28.2C260.192 27.3733 259.646 26.16 259.646 24.56C259.646 23.0133 260.139 21.8133 261.126 20.96C262.139 20.1067 263.312 19.52 264.646 19.2C265.979 18.88 267.472 18.64 269.126 18.48C270.246 18.4 271.139 18.24 271.806 18C272.472 17.7333 272.806 17.2 272.806 16.4C272.806 15.76 272.579 15.3067 272.126 15.04C271.672 14.7467 271.139 14.6 270.526 14.6C269.672 14.6 268.979 14.8267 268.446 15.28C267.939 15.7333 267.672 16.3733 267.646 17.2H260.606C260.632 15.36 261.112 13.8 262.046 12.52C262.979 11.2133 264.206 10.24 265.726 9.6C267.246 8.93333 268.899 8.6 270.686 8.6C272.419 8.6 273.979 8.92 275.366 9.56C276.752 10.2 277.832 11.1467 278.606 12.4C279.406 13.6267 279.806 15.1067 279.806 16.84V22.4H281.726V29H272.846V21.24C272.526 23.6133 271.752 25.5733 270.526 27.12C269.299 28.6667 267.579 29.44 265.366 29.44ZM269.326 23.68C269.886 23.68 270.432 23.4533 270.966 23C271.526 22.5467 271.979 21.96 272.326 21.24C272.672 20.52 272.846 19.8 272.846 19.08V18.16C272.579 18.4267 272.286 18.6133 271.966 18.72C271.672 18.8267 271.232 18.96 270.646 19.12C270.619 19.12 270.579 19.1333 270.526 19.16C270.499 19.16 270.472 19.16 270.446 19.16C269.512 19.32 268.766 19.5867 268.206 19.96C267.646 20.3333 267.366 20.9067 267.366 21.68C267.366 22.3733 267.552 22.88 267.926 23.2C268.299 23.52 268.766 23.68 269.326 23.68Z" fill="#7F7F7F"/>
</svg>
