<svg width="1176" height="758" viewBox="0 0 1176 758" fill="none" xmlns="http://www.w3.org/2000/svg">
<rect width="1176" height="758" fill="#D9D9D9"/>
<rect x="53" y="196" width="120" height="367" rx="33" fill="#B9A5A5"/>
<rect x="1003" y="196" width="133" height="367" rx="33" fill="#B9A5A5"/>
<rect x="218" y="90" width="740" height="595" rx="96" fill="#5B312E" fill-opacity="0.96"/>
<g style="mix-blend-mode:multiply">
<circle cx="850.5" cy="566.5" r="42.5" fill="#431D1A"/>
</g>
<path d="M871 571.5C871 576.194 867.194 580 862.5 580C857.806 580 854 576.194 854 571.5C854 566.806 857.806 563 862.5 563C867.194 563 871 566.806 871 571.5Z" fill="url(#paint0_radial_2_34)"/>
<path d="M849 562.5C849 567.194 845.194 571 840.5 571C835.806 571 832 567.194 832 562.5C832 557.806 835.806 554 840.5 554C845.194 554 849 557.806 849 562.5Z" fill="url(#paint1_radial_2_34)"/>
<ellipse cx="850.5" cy="623" rx="12.5" ry="12" fill="#D9D9D9"/>
<path d="M846.904 629V627.227L851.046 623.392C851.398 623.051 851.694 622.744 851.933 622.472C852.175 622.199 852.359 621.932 852.484 621.67C852.609 621.405 852.671 621.119 852.671 620.812C852.671 620.472 852.594 620.178 852.438 619.932C852.283 619.682 852.071 619.491 851.802 619.358C851.533 619.222 851.228 619.153 850.887 619.153C850.531 619.153 850.22 619.225 849.955 619.369C849.69 619.513 849.486 619.72 849.342 619.989C849.198 620.258 849.126 620.578 849.126 620.949H846.79C846.79 620.187 846.963 619.527 847.308 618.966C847.652 618.405 848.135 617.972 848.756 617.665C849.378 617.358 850.094 617.205 850.904 617.205C851.737 617.205 852.463 617.352 853.08 617.648C853.701 617.939 854.184 618.345 854.529 618.864C854.874 619.383 855.046 619.977 855.046 620.648C855.046 621.087 854.959 621.521 854.785 621.949C854.614 622.377 854.309 622.852 853.87 623.375C853.431 623.894 852.811 624.517 852.012 625.244L850.313 626.909V626.989H855.2V629H846.904Z" fill="black"/>
<g style="mix-blend-mode:multiply">
<circle cx="745.5" cy="566.5" r="42.5" fill="#431D1A"/>
</g>
<path d="M766 571.5C766 576.194 762.194 580 757.5 580C752.806 580 749 576.194 749 571.5C749 566.806 752.806 563 757.5 563C762.194 563 766 566.806 766 571.5Z" fill="url(#paint2_radial_2_34)"/>
<path d="M744 562.5C744 567.194 740.194 571 735.5 571C730.806 571 727 567.194 727 562.5C727 557.806 730.806 554 735.5 554C740.194 554 744 557.806 744 562.5Z" fill="url(#paint3_radial_2_34)"/>
<ellipse cx="745.5" cy="623" rx="12.5" ry="12" fill="#D9D9D9"/>
<path d="M741.904 629V627.227L746.046 623.392C746.398 623.051 746.694 622.744 746.933 622.472C747.175 622.199 747.359 621.932 747.484 621.67C747.609 621.405 747.671 621.119 747.671 620.812C747.671 620.472 747.594 620.178 747.438 619.932C747.283 619.682 747.071 619.491 746.802 619.358C746.533 619.222 746.228 619.153 745.887 619.153C745.531 619.153 745.22 619.225 744.955 619.369C744.69 619.513 744.486 619.72 744.342 619.989C744.198 620.258 744.126 620.578 744.126 620.949H741.79C741.79 620.187 741.963 619.527 742.308 618.966C742.652 618.405 743.135 617.972 743.756 617.665C744.378 617.358 745.094 617.205 745.904 617.205C746.737 617.205 747.463 617.352 748.08 617.648C748.701 617.939 749.184 618.345 749.529 618.864C749.874 619.383 750.046 619.977 750.046 620.648C750.046 621.087 749.959 621.521 749.785 621.949C749.614 622.377 749.309 622.852 748.87 623.375C748.431 623.894 747.811 624.517 747.012 625.244L745.313 626.909V626.989H750.2V629H741.904Z" fill="black"/>
<g style="mix-blend-mode:multiply">
<circle cx="640.5" cy="566.5" r="42.5" fill="#431D1A"/>
</g>
<path d="M661 571.5C661 576.194 657.194 580 652.5 580C647.806 580 644 576.194 644 571.5C644 566.806 647.806 563 652.5 563C657.194 563 661 566.806 661 571.5Z" fill="url(#paint4_radial_2_34)"/>
<path d="M639 562.5C639 567.194 635.194 571 630.5 571C625.806 571 622 567.194 622 562.5C622 557.806 625.806 554 630.5 554C635.194 554 639 557.806 639 562.5Z" fill="url(#paint5_radial_2_34)"/>
<ellipse cx="640.5" cy="623" rx="12.5" ry="12" fill="#D9D9D9"/>
<path d="M636.904 629V627.227L641.046 623.392C641.398 623.051 641.694 622.744 641.933 622.472C642.175 622.199 642.359 621.932 642.484 621.67C642.609 621.405 642.671 621.119 642.671 620.812C642.671 620.472 642.594 620.178 642.438 619.932C642.283 619.682 642.071 619.491 641.802 619.358C641.533 619.222 641.228 619.153 640.887 619.153C640.531 619.153 640.22 619.225 639.955 619.369C639.69 619.513 639.486 619.72 639.342 619.989C639.198 620.258 639.126 620.578 639.126 620.949H636.79C636.79 620.187 636.963 619.527 637.308 618.966C637.652 618.405 638.135 617.972 638.756 617.665C639.378 617.358 640.094 617.205 640.904 617.205C641.737 617.205 642.463 617.352 643.08 617.648C643.701 617.939 644.184 618.345 644.529 618.864C644.874 619.383 645.046 619.977 645.046 620.648C645.046 621.087 644.959 621.521 644.785 621.949C644.614 622.377 644.309 622.852 643.87 623.375C643.431 623.894 642.811 624.517 642.012 625.244L640.313 626.909V626.989H645.2V629H636.904Z" fill="black"/>
<g style="mix-blend-mode:multiply">
<circle cx="535.5" cy="566.5" r="42.5" fill="#431D1A"/>
</g>
<path d="M556 571.5C556 576.194 552.194 580 547.5 580C542.806 580 539 576.194 539 571.5C539 566.806 542.806 563 547.5 563C552.194 563 556 566.806 556 571.5Z" fill="url(#paint6_radial_2_34)"/>
<path d="M534 562.5C534 567.194 530.194 571 525.5 571C520.806 571 517 567.194 517 562.5C517 557.806 520.806 554 525.5 554C530.194 554 534 557.806 534 562.5Z" fill="url(#paint7_radial_2_34)"/>
<ellipse cx="535.5" cy="623" rx="12.5" ry="12" fill="#D9D9D9"/>
<path d="M531.904 629V627.227L536.046 623.392C536.398 623.051 536.694 622.744 536.933 622.472C537.175 622.199 537.359 621.932 537.484 621.67C537.609 621.405 537.671 621.119 537.671 620.812C537.671 620.472 537.594 620.178 537.438 619.932C537.283 619.682 537.071 619.491 536.802 619.358C536.533 619.222 536.228 619.153 535.887 619.153C535.531 619.153 535.22 619.225 534.955 619.369C534.69 619.513 534.486 619.72 534.342 619.989C534.198 620.258 534.126 620.578 534.126 620.949H531.79C531.79 620.187 531.963 619.527 532.308 618.966C532.652 618.405 533.135 617.972 533.756 617.665C534.378 617.358 535.094 617.205 535.904 617.205C536.737 617.205 537.463 617.352 538.08 617.648C538.701 617.939 539.184 618.345 539.529 618.864C539.874 619.383 540.046 619.977 540.046 620.648C540.046 621.087 539.959 621.521 539.785 621.949C539.614 622.377 539.309 622.852 538.87 623.375C538.431 623.894 537.811 624.517 537.012 625.244L535.313 626.909V626.989H540.2V629H531.904Z" fill="black"/>
<g style="mix-blend-mode:multiply">
<circle cx="430.5" cy="566.5" r="42.5" fill="#431D1A"/>
</g>
<path d="M451 571.5C451 576.194 447.194 580 442.5 580C437.806 580 434 576.194 434 571.5C434 566.806 437.806 563 442.5 563C447.194 563 451 566.806 451 571.5Z" fill="url(#paint8_radial_2_34)"/>
<path d="M429 562.5C429 567.194 425.194 571 420.5 571C415.806 571 412 567.194 412 562.5C412 557.806 415.806 554 420.5 554C425.194 554 429 557.806 429 562.5Z" fill="url(#paint9_radial_2_34)"/>
<ellipse cx="431.5" cy="624" rx="12.5" ry="12" fill="#D9D9D9"/>
<path d="M427.904 630V628.227L432.046 624.392C432.398 624.051 432.694 623.744 432.933 623.472C433.175 623.199 433.359 622.932 433.484 622.67C433.609 622.405 433.671 622.119 433.671 621.812C433.671 621.472 433.594 621.178 433.438 620.932C433.283 620.682 433.071 620.491 432.802 620.358C432.533 620.222 432.228 620.153 431.887 620.153C431.531 620.153 431.22 620.225 430.955 620.369C430.69 620.513 430.486 620.72 430.342 620.989C430.198 621.258 430.126 621.578 430.126 621.949H427.79C427.79 621.187 427.963 620.527 428.308 619.966C428.652 619.405 429.135 618.972 429.756 618.665C430.378 618.358 431.094 618.205 431.904 618.205C432.737 618.205 433.463 618.352 434.08 618.648C434.701 618.939 435.184 619.345 435.529 619.864C435.874 620.383 436.046 620.977 436.046 621.648C436.046 622.087 435.959 622.521 435.785 622.949C435.614 623.377 435.309 623.852 434.87 624.375C434.431 624.894 433.811 625.517 433.012 626.244L431.313 627.909V627.989H436.2V630H427.904Z" fill="black"/>
<g style="mix-blend-mode:multiply">
<circle cx="325.5" cy="566.5" r="42.5" fill="#431D1A"/>
</g>
<path d="M346 571.5C346 576.194 342.194 580 337.5 580C332.806 580 329 576.194 329 571.5C329 566.806 332.806 563 337.5 563C342.194 563 346 566.806 346 571.5Z" fill="url(#paint10_radial_2_34)"/>
<path d="M324 562.5C324 567.194 320.194 571 315.5 571C310.806 571 307 567.194 307 562.5C307 557.806 310.806 554 315.5 554C320.194 554 324 557.806 324 562.5Z" fill="url(#paint11_radial_2_34)"/>
<ellipse cx="325.5" cy="623" rx="12.5" ry="12" fill="#D9D9D9"/>
<path d="M321.904 629V627.227L326.046 623.392C326.398 623.051 326.694 622.744 326.933 622.472C327.175 622.199 327.359 621.932 327.484 621.67C327.609 621.405 327.671 621.119 327.671 620.812C327.671 620.472 327.594 620.178 327.438 619.932C327.283 619.682 327.071 619.491 326.802 619.358C326.533 619.222 326.228 619.153 325.887 619.153C325.531 619.153 325.22 619.225 324.955 619.369C324.69 619.513 324.486 619.72 324.342 619.989C324.198 620.258 324.126 620.578 324.126 620.949H321.79C321.79 620.187 321.963 619.527 322.308 618.966C322.652 618.405 323.135 617.972 323.756 617.665C324.378 617.358 325.094 617.205 325.904 617.205C326.737 617.205 327.463 617.352 328.08 617.648C328.701 617.939 329.184 618.345 329.529 618.864C329.874 619.383 330.046 619.977 330.046 620.648C330.046 621.087 329.959 621.521 329.785 621.949C329.614 622.377 329.309 622.852 328.87 623.375C328.431 623.894 327.811 624.517 327.012 625.244L325.313 626.909V626.989H330.2V629H321.904Z" fill="black"/>
<g style="mix-blend-mode:multiply">
<circle cx="850.5" cy="449.5" r="42.5" fill="#431D1A"/>
</g>
<path d="M871 454.5C871 459.194 867.194 463 862.5 463C857.806 463 854 459.194 854 454.5C854 449.806 857.806 446 862.5 446C867.194 446 871 449.806 871 454.5Z" fill="url(#paint12_radial_2_34)"/>
<path d="M849 445.5C849 450.194 845.194 454 840.5 454C835.806 454 832 450.194 832 445.5C832 440.806 835.806 437 840.5 437C845.194 437 849 440.806 849 445.5Z" fill="url(#paint13_radial_2_34)"/>
<ellipse cx="850.5" cy="506" rx="12.5" ry="12" fill="#D9D9D9"/>
<path d="M846.904 512V510.227L851.046 506.392C851.398 506.051 851.694 505.744 851.933 505.472C852.175 505.199 852.359 504.932 852.484 504.67C852.609 504.405 852.671 504.119 852.671 503.812C852.671 503.472 852.594 503.178 852.438 502.932C852.283 502.682 852.071 502.491 851.802 502.358C851.533 502.222 851.228 502.153 850.887 502.153C850.531 502.153 850.22 502.225 849.955 502.369C849.69 502.513 849.486 502.72 849.342 502.989C849.198 503.258 849.126 503.578 849.126 503.949H846.79C846.79 503.187 846.963 502.527 847.308 501.966C847.652 501.405 848.135 500.972 848.756 500.665C849.378 500.358 850.094 500.205 850.904 500.205C851.737 500.205 852.463 500.352 853.08 500.648C853.701 500.939 854.184 501.345 854.529 501.864C854.874 502.383 855.046 502.977 855.046 503.648C855.046 504.087 854.959 504.521 854.785 504.949C854.614 505.377 854.309 505.852 853.87 506.375C853.431 506.894 852.811 507.517 852.012 508.244L850.313 509.909V509.989H855.2V512H846.904Z" fill="black"/>
<g style="mix-blend-mode:multiply">
<circle cx="745.5" cy="449.5" r="42.5" fill="#431D1A"/>
</g>
<path d="M766 454.5C766 459.194 762.194 463 757.5 463C752.806 463 749 459.194 749 454.5C749 449.806 752.806 446 757.5 446C762.194 446 766 449.806 766 454.5Z" fill="url(#paint14_radial_2_34)"/>
<path d="M744 445.5C744 450.194 740.194 454 735.5 454C730.806 454 727 450.194 727 445.5C727 440.806 730.806 437 735.5 437C740.194 437 744 440.806 744 445.5Z" fill="url(#paint15_radial_2_34)"/>
<ellipse cx="745.5" cy="506" rx="12.5" ry="12" fill="#D9D9D9"/>
<path d="M741.904 512V510.227L746.046 506.392C746.398 506.051 746.694 505.744 746.933 505.472C747.175 505.199 747.359 504.932 747.484 504.67C747.609 504.405 747.671 504.119 747.671 503.812C747.671 503.472 747.594 503.178 747.438 502.932C747.283 502.682 747.071 502.491 746.802 502.358C746.533 502.222 746.228 502.153 745.887 502.153C745.531 502.153 745.22 502.225 744.955 502.369C744.69 502.513 744.486 502.72 744.342 502.989C744.198 503.258 744.126 503.578 744.126 503.949H741.79C741.79 503.187 741.963 502.527 742.308 501.966C742.652 501.405 743.135 500.972 743.756 500.665C744.378 500.358 745.094 500.205 745.904 500.205C746.737 500.205 747.463 500.352 748.08 500.648C748.701 500.939 749.184 501.345 749.529 501.864C749.874 502.383 750.046 502.977 750.046 503.648C750.046 504.087 749.959 504.521 749.785 504.949C749.614 505.377 749.309 505.852 748.87 506.375C748.431 506.894 747.811 507.517 747.012 508.244L745.313 509.909V509.989H750.2V512H741.904Z" fill="black"/>
<g style="mix-blend-mode:multiply">
<circle cx="640.5" cy="449.5" r="42.5" fill="#431D1A"/>
</g>
<path d="M661 454.5C661 459.194 657.194 463 652.5 463C647.806 463 644 459.194 644 454.5C644 449.806 647.806 446 652.5 446C657.194 446 661 449.806 661 454.5Z" fill="url(#paint16_radial_2_34)"/>
<path d="M639 445.5C639 450.194 635.194 454 630.5 454C625.806 454 622 450.194 622 445.5C622 440.806 625.806 437 630.5 437C635.194 437 639 440.806 639 445.5Z" fill="url(#paint17_radial_2_34)"/>
<ellipse cx="640.5" cy="506" rx="12.5" ry="12" fill="#D9D9D9"/>
<path d="M636.904 512V510.227L641.046 506.392C641.398 506.051 641.694 505.744 641.933 505.472C642.175 505.199 642.359 504.932 642.484 504.67C642.609 504.405 642.671 504.119 642.671 503.812C642.671 503.472 642.594 503.178 642.438 502.932C642.283 502.682 642.071 502.491 641.802 502.358C641.533 502.222 641.228 502.153 640.887 502.153C640.531 502.153 640.22 502.225 639.955 502.369C639.69 502.513 639.486 502.72 639.342 502.989C639.198 503.258 639.126 503.578 639.126 503.949H636.79C636.79 503.187 636.963 502.527 637.308 501.966C637.652 501.405 638.135 500.972 638.756 500.665C639.378 500.358 640.094 500.205 640.904 500.205C641.737 500.205 642.463 500.352 643.08 500.648C643.701 500.939 644.184 501.345 644.529 501.864C644.874 502.383 645.046 502.977 645.046 503.648C645.046 504.087 644.959 504.521 644.785 504.949C644.614 505.377 644.309 505.852 643.87 506.375C643.431 506.894 642.811 507.517 642.012 508.244L640.313 509.909V509.989H645.2V512H636.904Z" fill="black"/>
<g style="mix-blend-mode:multiply">
<circle cx="535.5" cy="449.5" r="42.5" fill="#431D1A"/>
</g>
<path d="M556 454.5C556 459.194 552.194 463 547.5 463C542.806 463 539 459.194 539 454.5C539 449.806 542.806 446 547.5 446C552.194 446 556 449.806 556 454.5Z" fill="url(#paint18_radial_2_34)"/>
<path d="M534 445.5C534 450.194 530.194 454 525.5 454C520.806 454 517 450.194 517 445.5C517 440.806 520.806 437 525.5 437C530.194 437 534 440.806 534 445.5Z" fill="url(#paint19_radial_2_34)"/>
<ellipse cx="535.5" cy="506" rx="12.5" ry="12" fill="#D9D9D9"/>
<path d="M531.904 512V510.227L536.046 506.392C536.398 506.051 536.694 505.744 536.933 505.472C537.175 505.199 537.359 504.932 537.484 504.67C537.609 504.405 537.671 504.119 537.671 503.812C537.671 503.472 537.594 503.178 537.438 502.932C537.283 502.682 537.071 502.491 536.802 502.358C536.533 502.222 536.228 502.153 535.887 502.153C535.531 502.153 535.22 502.225 534.955 502.369C534.69 502.513 534.486 502.72 534.342 502.989C534.198 503.258 534.126 503.578 534.126 503.949H531.79C531.79 503.187 531.963 502.527 532.308 501.966C532.652 501.405 533.135 500.972 533.756 500.665C534.378 500.358 535.094 500.205 535.904 500.205C536.737 500.205 537.463 500.352 538.08 500.648C538.701 500.939 539.184 501.345 539.529 501.864C539.874 502.383 540.046 502.977 540.046 503.648C540.046 504.087 539.959 504.521 539.785 504.949C539.614 505.377 539.309 505.852 538.87 506.375C538.431 506.894 537.811 507.517 537.012 508.244L535.313 509.909V509.989H540.2V512H531.904Z" fill="black"/>
<g style="mix-blend-mode:multiply">
<circle cx="430.5" cy="449.5" r="42.5" fill="#431D1A"/>
</g>
<path d="M451 454.5C451 459.194 447.194 463 442.5 463C437.806 463 434 459.194 434 454.5C434 449.806 437.806 446 442.5 446C447.194 446 451 449.806 451 454.5Z" fill="url(#paint20_radial_2_34)"/>
<path d="M429 445.5C429 450.194 425.194 454 420.5 454C415.806 454 412 450.194 412 445.5C412 440.806 415.806 437 420.5 437C425.194 437 429 440.806 429 445.5Z" fill="url(#paint21_radial_2_34)"/>
<ellipse cx="430.5" cy="506" rx="12.5" ry="12" fill="#D9D9D9"/>
<path d="M426.904 512V510.227L431.046 506.392C431.398 506.051 431.694 505.744 431.933 505.472C432.175 505.199 432.359 504.932 432.484 504.67C432.609 504.405 432.671 504.119 432.671 503.812C432.671 503.472 432.594 503.178 432.438 502.932C432.283 502.682 432.071 502.491 431.802 502.358C431.533 502.222 431.228 502.153 430.887 502.153C430.531 502.153 430.22 502.225 429.955 502.369C429.69 502.513 429.486 502.72 429.342 502.989C429.198 503.258 429.126 503.578 429.126 503.949H426.79C426.79 503.187 426.963 502.527 427.308 501.966C427.652 501.405 428.135 500.972 428.756 500.665C429.378 500.358 430.094 500.205 430.904 500.205C431.737 500.205 432.463 500.352 433.08 500.648C433.701 500.939 434.184 501.345 434.529 501.864C434.874 502.383 435.046 502.977 435.046 503.648C435.046 504.087 434.959 504.521 434.785 504.949C434.614 505.377 434.309 505.852 433.87 506.375C433.431 506.894 432.811 507.517 432.012 508.244L430.313 509.909V509.989H435.2V512H426.904Z" fill="black"/>
<ellipse cx="325.5" cy="506" rx="12.5" ry="12" fill="#D9D9D9"/>
<path d="M321.904 512V510.227L326.046 506.392C326.398 506.051 326.694 505.744 326.933 505.472C327.175 505.199 327.359 504.932 327.484 504.67C327.609 504.405 327.671 504.119 327.671 503.812C327.671 503.472 327.594 503.178 327.438 502.932C327.283 502.682 327.071 502.491 326.802 502.358C326.533 502.222 326.228 502.153 325.887 502.153C325.531 502.153 325.22 502.225 324.955 502.369C324.69 502.513 324.486 502.72 324.342 502.989C324.198 503.258 324.126 503.578 324.126 503.949H321.79C321.79 503.187 321.963 502.527 322.308 501.966C322.652 501.405 323.135 500.972 323.756 500.665C324.378 500.358 325.094 500.205 325.904 500.205C326.737 500.205 327.463 500.352 328.08 500.648C328.701 500.939 329.184 501.345 329.529 501.864C329.874 502.383 330.046 502.977 330.046 503.648C330.046 504.087 329.959 504.521 329.785 504.949C329.614 505.377 329.309 505.852 328.87 506.375C328.431 506.894 327.811 507.517 327.012 508.244L325.313 509.909V509.989H330.2V512H321.904Z" fill="black"/>
<g style="mix-blend-mode:multiply">
<circle cx="325.5" cy="449.5" r="42.5" fill="#431D1A"/>
</g>
<path d="M346 454.5C346 459.194 342.194 463 337.5 463C332.806 463 329 459.194 329 454.5C329 449.806 332.806 446 337.5 446C342.194 446 346 449.806 346 454.5Z" fill="url(#paint22_radial_2_34)"/>
<path d="M324 445.5C324 450.194 320.194 454 315.5 454C310.806 454 307 450.194 307 445.5C307 440.806 310.806 437 315.5 437C320.194 437 324 440.806 324 445.5Z" fill="url(#paint23_radial_2_34)"/>
<g style="mix-blend-mode:multiply">
<circle cx="850.5" cy="296.5" r="42.5" fill="#431D1A"/>
</g>
<path d="M871 301.5C871 306.194 867.194 310 862.5 310C857.806 310 854 306.194 854 301.5C854 296.806 857.806 293 862.5 293C867.194 293 871 296.806 871 301.5Z" fill="url(#paint24_radial_2_34)"/>
<path d="M849 292.5C849 297.194 845.194 301 840.5 301C835.806 301 832 297.194 832 292.5C832 287.806 835.806 284 840.5 284C845.194 284 849 287.806 849 292.5Z" fill="url(#paint25_radial_2_34)"/>
<ellipse cx="850.5" cy="353" rx="12.5" ry="12" fill="#D9D9D9"/>
<path d="M846.904 359V357.227L851.046 353.392C851.398 353.051 851.694 352.744 851.933 352.472C852.175 352.199 852.359 351.932 852.484 351.67C852.609 351.405 852.671 351.119 852.671 350.812C852.671 350.472 852.594 350.178 852.438 349.932C852.283 349.682 852.071 349.491 851.802 349.358C851.533 349.222 851.228 349.153 850.887 349.153C850.531 349.153 850.22 349.225 849.955 349.369C849.69 349.513 849.486 349.72 849.342 349.989C849.198 350.258 849.126 350.578 849.126 350.949H846.79C846.79 350.187 846.963 349.527 847.308 348.966C847.652 348.405 848.135 347.972 848.756 347.665C849.378 347.358 850.094 347.205 850.904 347.205C851.737 347.205 852.463 347.352 853.08 347.648C853.701 347.939 854.184 348.345 854.529 348.864C854.874 349.383 855.046 349.977 855.046 350.648C855.046 351.087 854.959 351.521 854.785 351.949C854.614 352.377 854.309 352.852 853.87 353.375C853.431 353.894 852.811 354.517 852.012 355.244L850.313 356.909V356.989H855.2V359H846.904Z" fill="black"/>
<g style="mix-blend-mode:multiply">
<circle cx="745.5" cy="296.5" r="42.5" fill="#431D1A"/>
</g>
<path d="M766 301.5C766 306.194 762.194 310 757.5 310C752.806 310 749 306.194 749 301.5C749 296.806 752.806 293 757.5 293C762.194 293 766 296.806 766 301.5Z" fill="url(#paint26_radial_2_34)"/>
<path d="M744 292.5C744 297.194 740.194 301 735.5 301C730.806 301 727 297.194 727 292.5C727 287.806 730.806 284 735.5 284C740.194 284 744 287.806 744 292.5Z" fill="url(#paint27_radial_2_34)"/>
<ellipse cx="745.5" cy="353" rx="12.5" ry="12" fill="#D9D9D9"/>
<path d="M741.904 359V357.227L746.046 353.392C746.398 353.051 746.694 352.744 746.933 352.472C747.175 352.199 747.359 351.932 747.484 351.67C747.609 351.405 747.671 351.119 747.671 350.812C747.671 350.472 747.594 350.178 747.438 349.932C747.283 349.682 747.071 349.491 746.802 349.358C746.533 349.222 746.228 349.153 745.887 349.153C745.531 349.153 745.22 349.225 744.955 349.369C744.69 349.513 744.486 349.72 744.342 349.989C744.198 350.258 744.126 350.578 744.126 350.949H741.79C741.79 350.187 741.963 349.527 742.308 348.966C742.652 348.405 743.135 347.972 743.756 347.665C744.378 347.358 745.094 347.205 745.904 347.205C746.737 347.205 747.463 347.352 748.08 347.648C748.701 347.939 749.184 348.345 749.529 348.864C749.874 349.383 750.046 349.977 750.046 350.648C750.046 351.087 749.959 351.521 749.785 351.949C749.614 352.377 749.309 352.852 748.87 353.375C748.431 353.894 747.811 354.517 747.012 355.244L745.313 356.909V356.989H750.2V359H741.904Z" fill="black"/>
<g style="mix-blend-mode:multiply">
<circle cx="640.5" cy="296.5" r="42.5" fill="#431D1A"/>
</g>
<path d="M661 301.5C661 306.194 657.194 310 652.5 310C647.806 310 644 306.194 644 301.5C644 296.806 647.806 293 652.5 293C657.194 293 661 296.806 661 301.5Z" fill="url(#paint28_radial_2_34)"/>
<path d="M639 292.5C639 297.194 635.194 301 630.5 301C625.806 301 622 297.194 622 292.5C622 287.806 625.806 284 630.5 284C635.194 284 639 287.806 639 292.5Z" fill="url(#paint29_radial_2_34)"/>
<ellipse cx="640.5" cy="353" rx="12.5" ry="12" fill="#D9D9D9"/>
<path d="M636.904 359V357.227L641.046 353.392C641.398 353.051 641.694 352.744 641.933 352.472C642.175 352.199 642.359 351.932 642.484 351.67C642.609 351.405 642.671 351.119 642.671 350.812C642.671 350.472 642.594 350.178 642.438 349.932C642.283 349.682 642.071 349.491 641.802 349.358C641.533 349.222 641.228 349.153 640.887 349.153C640.531 349.153 640.22 349.225 639.955 349.369C639.69 349.513 639.486 349.72 639.342 349.989C639.198 350.258 639.126 350.578 639.126 350.949H636.79C636.79 350.187 636.963 349.527 637.308 348.966C637.652 348.405 638.135 347.972 638.756 347.665C639.378 347.358 640.094 347.205 640.904 347.205C641.737 347.205 642.463 347.352 643.08 347.648C643.701 347.939 644.184 348.345 644.529 348.864C644.874 349.383 645.046 349.977 645.046 350.648C645.046 351.087 644.959 351.521 644.785 351.949C644.614 352.377 644.309 352.852 643.87 353.375C643.431 353.894 642.811 354.517 642.012 355.244L640.313 356.909V356.989H645.2V359H636.904Z" fill="black"/>
<g style="mix-blend-mode:multiply">
<circle cx="535.5" cy="296.5" r="42.5" fill="#431D1A"/>
</g>
<path d="M556 301.5C556 306.194 552.194 310 547.5 310C542.806 310 539 306.194 539 301.5C539 296.806 542.806 293 547.5 293C552.194 293 556 296.806 556 301.5Z" fill="url(#paint30_radial_2_34)"/>
<path d="M534 292.5C534 297.194 530.194 301 525.5 301C520.806 301 517 297.194 517 292.5C517 287.806 520.806 284 525.5 284C530.194 284 534 287.806 534 292.5Z" fill="url(#paint31_radial_2_34)"/>
<ellipse cx="535.5" cy="353" rx="12.5" ry="12" fill="#D9D9D9"/>
<path d="M531.904 359V357.227L536.046 353.392C536.398 353.051 536.694 352.744 536.933 352.472C537.175 352.199 537.359 351.932 537.484 351.67C537.609 351.405 537.671 351.119 537.671 350.812C537.671 350.472 537.594 350.178 537.438 349.932C537.283 349.682 537.071 349.491 536.802 349.358C536.533 349.222 536.228 349.153 535.887 349.153C535.531 349.153 535.22 349.225 534.955 349.369C534.69 349.513 534.486 349.72 534.342 349.989C534.198 350.258 534.126 350.578 534.126 350.949H531.79C531.79 350.187 531.963 349.527 532.308 348.966C532.652 348.405 533.135 347.972 533.756 347.665C534.378 347.358 535.094 347.205 535.904 347.205C536.737 347.205 537.463 347.352 538.08 347.648C538.701 347.939 539.184 348.345 539.529 348.864C539.874 349.383 540.046 349.977 540.046 350.648C540.046 351.087 539.959 351.521 539.785 351.949C539.614 352.377 539.309 352.852 538.87 353.375C538.431 353.894 537.811 354.517 537.012 355.244L535.313 356.909V356.989H540.2V359H531.904Z" fill="black"/>
<g style="mix-blend-mode:multiply">
<circle cx="430.5" cy="296.5" r="42.5" fill="#431D1A"/>
</g>
<path d="M451 301.5C451 306.194 447.194 310 442.5 310C437.806 310 434 306.194 434 301.5C434 296.806 437.806 293 442.5 293C447.194 293 451 296.806 451 301.5Z" fill="url(#paint32_radial_2_34)"/>
<path d="M429 292.5C429 297.194 425.194 301 420.5 301C415.806 301 412 297.194 412 292.5C412 287.806 415.806 284 420.5 284C425.194 284 429 287.806 429 292.5Z" fill="url(#paint33_radial_2_34)"/>
<ellipse cx="430.5" cy="353" rx="12.5" ry="12" fill="#D9D9D9"/>
<path d="M426.904 359V357.227L431.046 353.392C431.398 353.051 431.694 352.744 431.933 352.472C432.175 352.199 432.359 351.932 432.484 351.67C432.609 351.405 432.671 351.119 432.671 350.812C432.671 350.472 432.594 350.178 432.438 349.932C432.283 349.682 432.071 349.491 431.802 349.358C431.533 349.222 431.228 349.153 430.887 349.153C430.531 349.153 430.22 349.225 429.955 349.369C429.69 349.513 429.486 349.72 429.342 349.989C429.198 350.258 429.126 350.578 429.126 350.949H426.79C426.79 350.187 426.963 349.527 427.308 348.966C427.652 348.405 428.135 347.972 428.756 347.665C429.378 347.358 430.094 347.205 430.904 347.205C431.737 347.205 432.463 347.352 433.08 347.648C433.701 347.939 434.184 348.345 434.529 348.864C434.874 349.383 435.046 349.977 435.046 350.648C435.046 351.087 434.959 351.521 434.785 351.949C434.614 352.377 434.309 352.852 433.87 353.375C433.431 353.894 432.811 354.517 432.012 355.244L430.313 356.909V356.989H435.2V359H426.904Z" fill="black"/>
<g style="mix-blend-mode:multiply">
<circle cx="325.5" cy="296.5" r="42.5" fill="#431D1A"/>
</g>
<path d="M346 301.5C346 306.194 342.194 310 337.5 310C332.806 310 329 306.194 329 301.5C329 296.806 332.806 293 337.5 293C342.194 293 346 296.806 346 301.5Z" fill="url(#paint34_radial_2_34)"/>
<path d="M324 292.5C324 297.194 320.194 301 315.5 301C310.806 301 307 297.194 307 292.5C307 287.806 310.806 284 315.5 284C320.194 284 324 287.806 324 292.5Z" fill="url(#paint35_radial_2_34)"/>
<ellipse cx="325.5" cy="353" rx="12.5" ry="12" fill="#D9D9D9"/>
<path d="M321.904 359V357.227L326.046 353.392C326.398 353.051 326.694 352.744 326.933 352.472C327.175 352.199 327.359 351.932 327.484 351.67C327.609 351.405 327.671 351.119 327.671 350.812C327.671 350.472 327.594 350.178 327.438 349.932C327.283 349.682 327.071 349.491 326.802 349.358C326.533 349.222 326.228 349.153 325.887 349.153C325.531 349.153 325.22 349.225 324.955 349.369C324.69 349.513 324.486 349.72 324.342 349.989C324.198 350.258 324.126 350.578 324.126 350.949H321.79C321.79 350.187 321.963 349.527 322.308 348.966C322.652 348.405 323.135 347.972 323.756 347.665C324.378 347.358 325.094 347.205 325.904 347.205C326.737 347.205 327.463 347.352 328.08 347.648C328.701 347.939 329.184 348.345 329.529 348.864C329.874 349.383 330.046 349.977 330.046 350.648C330.046 351.087 329.959 351.521 329.785 351.949C329.614 352.377 329.309 352.852 328.87 353.375C328.431 353.894 327.811 354.517 327.012 355.244L325.313 356.909V356.989H330.2V359H321.904Z" fill="black"/>
<g style="mix-blend-mode:multiply">
<circle cx="850.5" cy="179.5" r="42.5" fill="#431D1A"/>
</g>
<path d="M871 184.5C871 189.194 867.194 193 862.5 193C857.806 193 854 189.194 854 184.5C854 179.806 857.806 176 862.5 176C867.194 176 871 179.806 871 184.5Z" fill="url(#paint36_radial_2_34)"/>
<path d="M849 175.5C849 180.194 845.194 184 840.5 184C835.806 184 832 180.194 832 175.5C832 170.806 835.806 167 840.5 167C845.194 167 849 170.806 849 175.5Z" fill="url(#paint37_radial_2_34)"/>
<ellipse cx="850.5" cy="236" rx="12.5" ry="12" fill="#D9D9D9"/>
<path d="M846.904 242V240.227L851.046 236.392C851.398 236.051 851.694 235.744 851.933 235.472C852.175 235.199 852.359 234.932 852.484 234.67C852.609 234.405 852.671 234.119 852.671 233.812C852.671 233.472 852.594 233.178 852.438 232.932C852.283 232.682 852.071 232.491 851.802 232.358C851.533 232.222 851.228 232.153 850.887 232.153C850.531 232.153 850.22 232.225 849.955 232.369C849.69 232.513 849.486 232.72 849.342 232.989C849.198 233.258 849.126 233.578 849.126 233.949H846.79C846.79 233.187 846.963 232.527 847.308 231.966C847.652 231.405 848.135 230.972 848.756 230.665C849.378 230.358 850.094 230.205 850.904 230.205C851.737 230.205 852.463 230.352 853.08 230.648C853.701 230.939 854.184 231.345 854.529 231.864C854.874 232.383 855.046 232.977 855.046 233.648C855.046 234.087 854.959 234.521 854.785 234.949C854.614 235.377 854.309 235.852 853.87 236.375C853.431 236.894 852.811 237.517 852.012 238.244L850.313 239.909V239.989H855.2V242H846.904Z" fill="black"/>
<g style="mix-blend-mode:multiply">
<circle cx="745.5" cy="179.5" r="42.5" fill="#431D1A"/>
</g>
<path d="M766 184.5C766 189.194 762.194 193 757.5 193C752.806 193 749 189.194 749 184.5C749 179.806 752.806 176 757.5 176C762.194 176 766 179.806 766 184.5Z" fill="url(#paint38_radial_2_34)"/>
<path d="M744 175.5C744 180.194 740.194 184 735.5 184C730.806 184 727 180.194 727 175.5C727 170.806 730.806 167 735.5 167C740.194 167 744 170.806 744 175.5Z" fill="url(#paint39_radial_2_34)"/>
<ellipse cx="745.5" cy="236" rx="12.5" ry="12" fill="#D9D9D9"/>
<path d="M741.904 242V240.227L746.046 236.392C746.398 236.051 746.694 235.744 746.933 235.472C747.175 235.199 747.359 234.932 747.484 234.67C747.609 234.405 747.671 234.119 747.671 233.812C747.671 233.472 747.594 233.178 747.438 232.932C747.283 232.682 747.071 232.491 746.802 232.358C746.533 232.222 746.228 232.153 745.887 232.153C745.531 232.153 745.22 232.225 744.955 232.369C744.69 232.513 744.486 232.72 744.342 232.989C744.198 233.258 744.126 233.578 744.126 233.949H741.79C741.79 233.187 741.963 232.527 742.308 231.966C742.652 231.405 743.135 230.972 743.756 230.665C744.378 230.358 745.094 230.205 745.904 230.205C746.737 230.205 747.463 230.352 748.08 230.648C748.701 230.939 749.184 231.345 749.529 231.864C749.874 232.383 750.046 232.977 750.046 233.648C750.046 234.087 749.959 234.521 749.785 234.949C749.614 235.377 749.309 235.852 748.87 236.375C748.431 236.894 747.811 237.517 747.012 238.244L745.313 239.909V239.989H750.2V242H741.904Z" fill="black"/>
<g style="mix-blend-mode:multiply">
<circle cx="640.5" cy="179.5" r="42.5" fill="#431D1A"/>
</g>
<path d="M661 184.5C661 189.194 657.194 193 652.5 193C647.806 193 644 189.194 644 184.5C644 179.806 647.806 176 652.5 176C657.194 176 661 179.806 661 184.5Z" fill="url(#paint40_radial_2_34)"/>
<path d="M639 175.5C639 180.194 635.194 184 630.5 184C625.806 184 622 180.194 622 175.5C622 170.806 625.806 167 630.5 167C635.194 167 639 170.806 639 175.5Z" fill="url(#paint41_radial_2_34)"/>
<ellipse cx="640.5" cy="236" rx="12.5" ry="12" fill="#D9D9D9"/>
<path d="M636.904 242V240.227L641.046 236.392C641.398 236.051 641.694 235.744 641.933 235.472C642.175 235.199 642.359 234.932 642.484 234.67C642.609 234.405 642.671 234.119 642.671 233.812C642.671 233.472 642.594 233.178 642.438 232.932C642.283 232.682 642.071 232.491 641.802 232.358C641.533 232.222 641.228 232.153 640.887 232.153C640.531 232.153 640.22 232.225 639.955 232.369C639.69 232.513 639.486 232.72 639.342 232.989C639.198 233.258 639.126 233.578 639.126 233.949H636.79C636.79 233.187 636.963 232.527 637.308 231.966C637.652 231.405 638.135 230.972 638.756 230.665C639.378 230.358 640.094 230.205 640.904 230.205C641.737 230.205 642.463 230.352 643.08 230.648C643.701 230.939 644.184 231.345 644.529 231.864C644.874 232.383 645.046 232.977 645.046 233.648C645.046 234.087 644.959 234.521 644.785 234.949C644.614 235.377 644.309 235.852 643.87 236.375C643.431 236.894 642.811 237.517 642.012 238.244L640.313 239.909V239.989H645.2V242H636.904Z" fill="black"/>
<g style="mix-blend-mode:multiply">
<circle cx="535.5" cy="179.5" r="42.5" fill="#431D1A"/>
</g>
<path d="M556 184.5C556 189.194 552.194 193 547.5 193C542.806 193 539 189.194 539 184.5C539 179.806 542.806 176 547.5 176C552.194 176 556 179.806 556 184.5Z" fill="url(#paint42_radial_2_34)"/>
<path d="M534 175.5C534 180.194 530.194 184 525.5 184C520.806 184 517 180.194 517 175.5C517 170.806 520.806 167 525.5 167C530.194 167 534 170.806 534 175.5Z" fill="url(#paint43_radial_2_34)"/>
<ellipse cx="535.5" cy="236" rx="12.5" ry="12" fill="#D9D9D9"/>
<path d="M531.904 242V240.227L536.046 236.392C536.398 236.051 536.694 235.744 536.933 235.472C537.175 235.199 537.359 234.932 537.484 234.67C537.609 234.405 537.671 234.119 537.671 233.812C537.671 233.472 537.594 233.178 537.438 232.932C537.283 232.682 537.071 232.491 536.802 232.358C536.533 232.222 536.228 232.153 535.887 232.153C535.531 232.153 535.22 232.225 534.955 232.369C534.69 232.513 534.486 232.72 534.342 232.989C534.198 233.258 534.126 233.578 534.126 233.949H531.79C531.79 233.187 531.963 232.527 532.308 231.966C532.652 231.405 533.135 230.972 533.756 230.665C534.378 230.358 535.094 230.205 535.904 230.205C536.737 230.205 537.463 230.352 538.08 230.648C538.701 230.939 539.184 231.345 539.529 231.864C539.874 232.383 540.046 232.977 540.046 233.648C540.046 234.087 539.959 234.521 539.785 234.949C539.614 235.377 539.309 235.852 538.87 236.375C538.431 236.894 537.811 237.517 537.012 238.244L535.313 239.909V239.989H540.2V242H531.904Z" fill="black"/>
<g style="mix-blend-mode:multiply">
<circle cx="430.5" cy="179.5" r="42.5" fill="#431D1A"/>
</g>
<path d="M451 184.5C451 189.194 447.194 193 442.5 193C437.806 193 434 189.194 434 184.5C434 179.806 437.806 176 442.5 176C447.194 176 451 179.806 451 184.5Z" fill="url(#paint44_radial_2_34)"/>
<path d="M429 175.5C429 180.194 425.194 184 420.5 184C415.806 184 412 180.194 412 175.5C412 170.806 415.806 167 420.5 167C425.194 167 429 170.806 429 175.5Z" fill="url(#paint45_radial_2_34)"/>
<ellipse cx="430.5" cy="236" rx="12.5" ry="12" fill="#D9D9D9"/>
<path d="M426.904 242V240.227L431.046 236.392C431.398 236.051 431.694 235.744 431.933 235.472C432.175 235.199 432.359 234.932 432.484 234.67C432.609 234.405 432.671 234.119 432.671 233.812C432.671 233.472 432.594 233.178 432.438 232.932C432.283 232.682 432.071 232.491 431.802 232.358C431.533 232.222 431.228 232.153 430.887 232.153C430.531 232.153 430.22 232.225 429.955 232.369C429.69 232.513 429.486 232.72 429.342 232.989C429.198 233.258 429.126 233.578 429.126 233.949H426.79C426.79 233.187 426.963 232.527 427.308 231.966C427.652 231.405 428.135 230.972 428.756 230.665C429.378 230.358 430.094 230.205 430.904 230.205C431.737 230.205 432.463 230.352 433.08 230.648C433.701 230.939 434.184 231.345 434.529 231.864C434.874 232.383 435.046 232.977 435.046 233.648C435.046 234.087 434.959 234.521 434.785 234.949C434.614 235.377 434.309 235.852 433.87 236.375C433.431 236.894 432.811 237.517 432.012 238.244L430.313 239.909V239.989H435.2V242H426.904Z" fill="black"/>
<ellipse cx="325.5" cy="236" rx="12.5" ry="12" fill="#D9D9D9"/>
<path d="M321.904 242V240.227L326.046 236.392C326.398 236.051 326.694 235.744 326.933 235.472C327.175 235.199 327.359 234.932 327.484 234.67C327.609 234.405 327.671 234.119 327.671 233.812C327.671 233.472 327.594 233.178 327.438 232.932C327.283 232.682 327.071 232.491 326.802 232.358C326.533 232.222 326.228 232.153 325.887 232.153C325.531 232.153 325.22 232.225 324.955 232.369C324.69 232.513 324.486 232.72 324.342 232.989C324.198 233.258 324.126 233.578 324.126 233.949H321.79C321.79 233.187 321.963 232.527 322.308 231.966C322.652 231.405 323.135 230.972 323.756 230.665C324.378 230.358 325.094 230.205 325.904 230.205C326.737 230.205 327.463 230.352 328.08 230.648C328.701 230.939 329.184 231.345 329.529 231.864C329.874 232.383 330.046 232.977 330.046 233.648C330.046 234.087 329.959 234.521 329.785 234.949C329.614 235.377 329.309 235.852 328.87 236.375C328.431 236.894 327.811 237.517 327.012 238.244L325.313 239.909V239.989H330.2V242H321.904Z" fill="black"/>
<g style="mix-blend-mode:multiply">
<circle cx="325.5" cy="179.5" r="42.5" fill="#431D1A"/>
</g>
<path d="M346 184.5C346 189.194 342.194 193 337.5 193C332.806 193 329 189.194 329 184.5C329 179.806 332.806 176 337.5 176C342.194 176 346 179.806 346 184.5Z" fill="url(#paint46_radial_2_34)"/>
<path d="M324 175.5C324 180.194 320.194 184 315.5 184C310.806 184 307 180.194 307 175.5C307 170.806 310.806 167 315.5 167C320.194 167 324 170.806 324 175.5Z" fill="url(#paint47_radial_2_34)"/>
<rect x="263" y="383" width="650" height="6" rx="3" fill="#D9D9D9"/>
<defs>
<radialGradient id="paint0_radial_2_34" cx="0" cy="0" r="1" gradientUnits="userSpaceOnUse" gradientTransform="translate(862 571) rotate(62.4472) scale(12.9711 16.3594)">
<stop offset="0.245" stop-color="#C2B84B"/>
<stop offset="0.845" stop-color="#FFFEDA" stop-opacity="0.155"/>
<stop offset="1" stop-color="#FFF500" stop-opacity="0"/>
</radialGradient>
<radialGradient id="paint1_radial_2_34" cx="0" cy="0" r="1" gradientUnits="userSpaceOnUse" gradientTransform="translate(840 562) rotate(62.4472) scale(12.9711 16.3594)">
<stop offset="0.245" stop-color="#C2B84B"/>
<stop offset="0.845" stop-color="#FFFEDA" stop-opacity="0.155"/>
<stop offset="1" stop-color="#FFF500" stop-opacity="0"/>
</radialGradient>
<radialGradient id="paint2_radial_2_34" cx="0" cy="0" r="1" gradientUnits="userSpaceOnUse" gradientTransform="translate(757 571) rotate(62.4472) scale(12.9711 16.3594)">
<stop offset="0.245" stop-color="#C2B84B"/>
<stop offset="0.845" stop-color="#FFFEDA" stop-opacity="0.155"/>
<stop offset="1" stop-color="#FFF500" stop-opacity="0"/>
</radialGradient>
<radialGradient id="paint3_radial_2_34" cx="0" cy="0" r="1" gradientUnits="userSpaceOnUse" gradientTransform="translate(735 562) rotate(62.4472) scale(12.9711 16.3594)">
<stop offset="0.245" stop-color="#C2B84B"/>
<stop offset="0.845" stop-color="#FFFEDA" stop-opacity="0.155"/>
<stop offset="1" stop-color="#FFF500" stop-opacity="0"/>
</radialGradient>
<radialGradient id="paint4_radial_2_34" cx="0" cy="0" r="1" gradientUnits="userSpaceOnUse" gradientTransform="translate(652 571) rotate(62.4472) scale(12.9711 16.3594)">
<stop offset="0.245" stop-color="#C2B84B"/>
<stop offset="0.845" stop-color="#FFFEDA" stop-opacity="0.155"/>
<stop offset="1" stop-color="#FFF500" stop-opacity="0"/>
</radialGradient>
<radialGradient id="paint5_radial_2_34" cx="0" cy="0" r="1" gradientUnits="userSpaceOnUse" gradientTransform="translate(630 562) rotate(62.4472) scale(12.9711 16.3594)">
<stop offset="0.245" stop-color="#C2B84B"/>
<stop offset="0.845" stop-color="#FFFEDA" stop-opacity="0.155"/>
<stop offset="1" stop-color="#FFF500" stop-opacity="0"/>
</radialGradient>
<radialGradient id="paint6_radial_2_34" cx="0" cy="0" r="1" gradientUnits="userSpaceOnUse" gradientTransform="translate(547 571) rotate(62.4472) scale(12.9711 16.3594)">
<stop offset="0.245" stop-color="#C2B84B"/>
<stop offset="0.845" stop-color="#FFFEDA" stop-opacity="0.155"/>
<stop offset="1" stop-color="#FFF500" stop-opacity="0"/>
</radialGradient>
<radialGradient id="paint7_radial_2_34" cx="0" cy="0" r="1" gradientUnits="userSpaceOnUse" gradientTransform="translate(525 562) rotate(62.4472) scale(12.9711 16.3594)">
<stop offset="0.245" stop-color="#C2B84B"/>
<stop offset="0.845" stop-color="#FFFEDA" stop-opacity="0.155"/>
<stop offset="1" stop-color="#FFF500" stop-opacity="0"/>
</radialGradient>
<radialGradient id="paint8_radial_2_34" cx="0" cy="0" r="1" gradientUnits="userSpaceOnUse" gradientTransform="translate(442 571) rotate(62.4472) scale(12.9711 16.3594)">
<stop offset="0.245" stop-color="#C2B84B"/>
<stop offset="0.845" stop-color="#FFFEDA" stop-opacity="0.155"/>
<stop offset="1" stop-color="#FFF500" stop-opacity="0"/>
</radialGradient>
<radialGradient id="paint9_radial_2_34" cx="0" cy="0" r="1" gradientUnits="userSpaceOnUse" gradientTransform="translate(420 562) rotate(62.4472) scale(12.9711 16.3594)">
<stop offset="0.245" stop-color="#C2B84B"/>
<stop offset="0.845" stop-color="#FFFEDA" stop-opacity="0.155"/>
<stop offset="1" stop-color="#FFF500" stop-opacity="0"/>
</radialGradient>
<radialGradient id="paint10_radial_2_34" cx="0" cy="0" r="1" gradientUnits="userSpaceOnUse" gradientTransform="translate(337 571) rotate(62.4472) scale(12.9711 16.3594)">
<stop offset="0.245" stop-color="#C2B84B"/>
<stop offset="0.845" stop-color="#FFFEDA" stop-opacity="0.155"/>
<stop offset="1" stop-color="#FFF500" stop-opacity="0"/>
</radialGradient>
<radialGradient id="paint11_radial_2_34" cx="0" cy="0" r="1" gradientUnits="userSpaceOnUse" gradientTransform="translate(315 562) rotate(62.4472) scale(12.9711 16.3594)">
<stop offset="0.245" stop-color="#C2B84B"/>
<stop offset="0.845" stop-color="#FFFEDA" stop-opacity="0.155"/>
<stop offset="1" stop-color="#FFF500" stop-opacity="0"/>
</radialGradient>
<radialGradient id="paint12_radial_2_34" cx="0" cy="0" r="1" gradientUnits="userSpaceOnUse" gradientTransform="translate(862 454) rotate(62.4472) scale(12.9711 16.3594)">
<stop offset="0.245" stop-color="#C2B84B"/>
<stop offset="0.845" stop-color="#FFFEDA" stop-opacity="0.155"/>
<stop offset="1" stop-color="#FFF500" stop-opacity="0"/>
</radialGradient>
<radialGradient id="paint13_radial_2_34" cx="0" cy="0" r="1" gradientUnits="userSpaceOnUse" gradientTransform="translate(840 445) rotate(62.4472) scale(12.9711 16.3594)">
<stop offset="0.245" stop-color="#C2B84B"/>
<stop offset="0.845" stop-color="#FFFEDA" stop-opacity="0.155"/>
<stop offset="1" stop-color="#FFF500" stop-opacity="0"/>
</radialGradient>
<radialGradient id="paint14_radial_2_34" cx="0" cy="0" r="1" gradientUnits="userSpaceOnUse" gradientTransform="translate(757 454) rotate(62.4472) scale(12.9711 16.3594)">
<stop offset="0.245" stop-color="#C2B84B"/>
<stop offset="0.845" stop-color="#FFFEDA" stop-opacity="0.155"/>
<stop offset="1" stop-color="#FFF500" stop-opacity="0"/>
</radialGradient>
<radialGradient id="paint15_radial_2_34" cx="0" cy="0" r="1" gradientUnits="userSpaceOnUse" gradientTransform="translate(735 445) rotate(62.4472) scale(12.9711 16.3594)">
<stop offset="0.245" stop-color="#C2B84B"/>
<stop offset="0.845" stop-color="#FFFEDA" stop-opacity="0.155"/>
<stop offset="1" stop-color="#FFF500" stop-opacity="0"/>
</radialGradient>
<radialGradient id="paint16_radial_2_34" cx="0" cy="0" r="1" gradientUnits="userSpaceOnUse" gradientTransform="translate(652 454) rotate(62.4472) scale(12.9711 16.3594)">
<stop offset="0.245" stop-color="#C2B84B"/>
<stop offset="0.845" stop-color="#FFFEDA" stop-opacity="0.155"/>
<stop offset="1" stop-color="#FFF500" stop-opacity="0"/>
</radialGradient>
<radialGradient id="paint17_radial_2_34" cx="0" cy="0" r="1" gradientUnits="userSpaceOnUse" gradientTransform="translate(630 445) rotate(62.4472) scale(12.9711 16.3594)">
<stop offset="0.245" stop-color="#C2B84B"/>
<stop offset="0.845" stop-color="#FFFEDA" stop-opacity="0.155"/>
<stop offset="1" stop-color="#FFF500" stop-opacity="0"/>
</radialGradient>
<radialGradient id="paint18_radial_2_34" cx="0" cy="0" r="1" gradientUnits="userSpaceOnUse" gradientTransform="translate(547 454) rotate(62.4472) scale(12.9711 16.3594)">
<stop offset="0.245" stop-color="#C2B84B"/>
<stop offset="0.845" stop-color="#FFFEDA" stop-opacity="0.155"/>
<stop offset="1" stop-color="#FFF500" stop-opacity="0"/>
</radialGradient>
<radialGradient id="paint19_radial_2_34" cx="0" cy="0" r="1" gradientUnits="userSpaceOnUse" gradientTransform="translate(525 445) rotate(62.4472) scale(12.9711 16.3594)">
<stop offset="0.245" stop-color="#C2B84B"/>
<stop offset="0.845" stop-color="#FFFEDA" stop-opacity="0.155"/>
<stop offset="1" stop-color="#FFF500" stop-opacity="0"/>
</radialGradient>
<radialGradient id="paint20_radial_2_34" cx="0" cy="0" r="1" gradientUnits="userSpaceOnUse" gradientTransform="translate(442 454) rotate(62.4472) scale(12.9711 16.3594)">
<stop offset="0.245" stop-color="#C2B84B"/>
<stop offset="0.845" stop-color="#FFFEDA" stop-opacity="0.155"/>
<stop offset="1" stop-color="#FFF500" stop-opacity="0"/>
</radialGradient>
<radialGradient id="paint21_radial_2_34" cx="0" cy="0" r="1" gradientUnits="userSpaceOnUse" gradientTransform="translate(420 445) rotate(62.4472) scale(12.9711 16.3594)">
<stop offset="0.245" stop-color="#C2B84B"/>
<stop offset="0.845" stop-color="#FFFEDA" stop-opacity="0.155"/>
<stop offset="1" stop-color="#FFF500" stop-opacity="0"/>
</radialGradient>
<radialGradient id="paint22_radial_2_34" cx="0" cy="0" r="1" gradientUnits="userSpaceOnUse" gradientTransform="translate(337 454) rotate(62.4472) scale(12.9711 16.3594)">
<stop offset="0.245" stop-color="#C2B84B"/>
<stop offset="0.845" stop-color="#FFFEDA" stop-opacity="0.155"/>
<stop offset="1" stop-color="#FFF500" stop-opacity="0"/>
</radialGradient>
<radialGradient id="paint23_radial_2_34" cx="0" cy="0" r="1" gradientUnits="userSpaceOnUse" gradientTransform="translate(315 445) rotate(62.4472) scale(12.9711 16.3594)">
<stop offset="0.245" stop-color="#C2B84B"/>
<stop offset="0.845" stop-color="#FFFEDA" stop-opacity="0.155"/>
<stop offset="1" stop-color="#FFF500" stop-opacity="0"/>
</radialGradient>
<radialGradient id="paint24_radial_2_34" cx="0" cy="0" r="1" gradientUnits="userSpaceOnUse" gradientTransform="translate(862 301) rotate(62.4472) scale(12.9711 16.3594)">
<stop offset="0.245" stop-color="#C2B84B"/>
<stop offset="0.845" stop-color="#FFFEDA" stop-opacity="0.155"/>
<stop offset="1" stop-color="#FFF500" stop-opacity="0"/>
</radialGradient>
<radialGradient id="paint25_radial_2_34" cx="0" cy="0" r="1" gradientUnits="userSpaceOnUse" gradientTransform="translate(840 292) rotate(62.4472) scale(12.9711 16.3594)">
<stop offset="0.245" stop-color="#C2B84B"/>
<stop offset="0.845" stop-color="#FFFEDA" stop-opacity="0.155"/>
<stop offset="1" stop-color="#FFF500" stop-opacity="0"/>
</radialGradient>
<radialGradient id="paint26_radial_2_34" cx="0" cy="0" r="1" gradientUnits="userSpaceOnUse" gradientTransform="translate(757 301) rotate(62.4472) scale(12.9711 16.3594)">
<stop offset="0.245" stop-color="#C2B84B"/>
<stop offset="0.845" stop-color="#FFFEDA" stop-opacity="0.155"/>
<stop offset="1" stop-color="#FFF500" stop-opacity="0"/>
</radialGradient>
<radialGradient id="paint27_radial_2_34" cx="0" cy="0" r="1" gradientUnits="userSpaceOnUse" gradientTransform="translate(735 292) rotate(62.4472) scale(12.9711 16.3594)">
<stop offset="0.245" stop-color="#C2B84B"/>
<stop offset="0.845" stop-color="#FFFEDA" stop-opacity="0.155"/>
<stop offset="1" stop-color="#FFF500" stop-opacity="0"/>
</radialGradient>
<radialGradient id="paint28_radial_2_34" cx="0" cy="0" r="1" gradientUnits="userSpaceOnUse" gradientTransform="translate(652 301) rotate(62.4472) scale(12.9711 16.3594)">
<stop offset="0.245" stop-color="#C2B84B"/>
<stop offset="0.845" stop-color="#FFFEDA" stop-opacity="0.155"/>
<stop offset="1" stop-color="#FFF500" stop-opacity="0"/>
</radialGradient>
<radialGradient id="paint29_radial_2_34" cx="0" cy="0" r="1" gradientUnits="userSpaceOnUse" gradientTransform="translate(630 292) rotate(62.4472) scale(12.9711 16.3594)">
<stop offset="0.245" stop-color="#C2B84B"/>
<stop offset="0.845" stop-color="#FFFEDA" stop-opacity="0.155"/>
<stop offset="1" stop-color="#FFF500" stop-opacity="0"/>
</radialGradient>
<radialGradient id="paint30_radial_2_34" cx="0" cy="0" r="1" gradientUnits="userSpaceOnUse" gradientTransform="translate(547 301) rotate(62.4472) scale(12.9711 16.3594)">
<stop offset="0.245" stop-color="#C2B84B"/>
<stop offset="0.845" stop-color="#FFFEDA" stop-opacity="0.155"/>
<stop offset="1" stop-color="#FFF500" stop-opacity="0"/>
</radialGradient>
<radialGradient id="paint31_radial_2_34" cx="0" cy="0" r="1" gradientUnits="userSpaceOnUse" gradientTransform="translate(525 292) rotate(62.4472) scale(12.9711 16.3594)">
<stop offset="0.245" stop-color="#C2B84B"/>
<stop offset="0.845" stop-color="#FFFEDA" stop-opacity="0.155"/>
<stop offset="1" stop-color="#FFF500" stop-opacity="0"/>
</radialGradient>
<radialGradient id="paint32_radial_2_34" cx="0" cy="0" r="1" gradientUnits="userSpaceOnUse" gradientTransform="translate(442 301) rotate(62.4472) scale(12.9711 16.3594)">
<stop offset="0.245" stop-color="#C2B84B"/>
<stop offset="0.845" stop-color="#FFFEDA" stop-opacity="0.155"/>
<stop offset="1" stop-color="#FFF500" stop-opacity="0"/>
</radialGradient>
<radialGradient id="paint33_radial_2_34" cx="0" cy="0" r="1" gradientUnits="userSpaceOnUse" gradientTransform="translate(420 292) rotate(62.4472) scale(12.9711 16.3594)">
<stop offset="0.245" stop-color="#C2B84B"/>
<stop offset="0.845" stop-color="#FFFEDA" stop-opacity="0.155"/>
<stop offset="1" stop-color="#FFF500" stop-opacity="0"/>
</radialGradient>
<radialGradient id="paint34_radial_2_34" cx="0" cy="0" r="1" gradientUnits="userSpaceOnUse" gradientTransform="translate(337 301) rotate(62.4472) scale(12.9711 16.3594)">
<stop offset="0.245" stop-color="#C2B84B"/>
<stop offset="0.845" stop-color="#FFFEDA" stop-opacity="0.155"/>
<stop offset="1" stop-color="#FFF500" stop-opacity="0"/>
</radialGradient>
<radialGradient id="paint35_radial_2_34" cx="0" cy="0" r="1" gradientUnits="userSpaceOnUse" gradientTransform="translate(315 292) rotate(62.4472) scale(12.9711 16.3594)">
<stop offset="0.245" stop-color="#C2B84B"/>
<stop offset="0.845" stop-color="#FFFEDA" stop-opacity="0.155"/>
<stop offset="1" stop-color="#FFF500" stop-opacity="0"/>
</radialGradient>
<radialGradient id="paint36_radial_2_34" cx="0" cy="0" r="1" gradientUnits="userSpaceOnUse" gradientTransform="translate(862 184) rotate(62.4472) scale(12.9711 16.3594)">
<stop offset="0.245" stop-color="#C2B84B"/>
<stop offset="0.845" stop-color="#FFFEDA" stop-opacity="0.155"/>
<stop offset="1" stop-color="#FFF500" stop-opacity="0"/>
</radialGradient>
<radialGradient id="paint37_radial_2_34" cx="0" cy="0" r="1" gradientUnits="userSpaceOnUse" gradientTransform="translate(840 175) rotate(62.4472) scale(12.9711 16.3594)">
<stop offset="0.245" stop-color="#C2B84B"/>
<stop offset="0.845" stop-color="#FFFEDA" stop-opacity="0.155"/>
<stop offset="1" stop-color="#FFF500" stop-opacity="0"/>
</radialGradient>
<radialGradient id="paint38_radial_2_34" cx="0" cy="0" r="1" gradientUnits="userSpaceOnUse" gradientTransform="translate(757 184) rotate(62.4472) scale(12.9711 16.3594)">
<stop offset="0.245" stop-color="#C2B84B"/>
<stop offset="0.845" stop-color="#FFFEDA" stop-opacity="0.155"/>
<stop offset="1" stop-color="#FFF500" stop-opacity="0"/>
</radialGradient>
<radialGradient id="paint39_radial_2_34" cx="0" cy="0" r="1" gradientUnits="userSpaceOnUse" gradientTransform="translate(735 175) rotate(62.4472) scale(12.9711 16.3594)">
<stop offset="0.245" stop-color="#C2B84B"/>
<stop offset="0.845" stop-color="#FFFEDA" stop-opacity="0.155"/>
<stop offset="1" stop-color="#FFF500" stop-opacity="0"/>
</radialGradient>
<radialGradient id="paint40_radial_2_34" cx="0" cy="0" r="1" gradientUnits="userSpaceOnUse" gradientTransform="translate(652 184) rotate(62.4472) scale(12.9711 16.3594)">
<stop offset="0.245" stop-color="#C2B84B"/>
<stop offset="0.845" stop-color="#FFFEDA" stop-opacity="0.155"/>
<stop offset="1" stop-color="#FFF500" stop-opacity="0"/>
</radialGradient>
<radialGradient id="paint41_radial_2_34" cx="0" cy="0" r="1" gradientUnits="userSpaceOnUse" gradientTransform="translate(630 175) rotate(62.4472) scale(12.9711 16.3594)">
<stop offset="0.245" stop-color="#C2B84B"/>
<stop offset="0.845" stop-color="#FFFEDA" stop-opacity="0.155"/>
<stop offset="1" stop-color="#FFF500" stop-opacity="0"/>
</radialGradient>
<radialGradient id="paint42_radial_2_34" cx="0" cy="0" r="1" gradientUnits="userSpaceOnUse" gradientTransform="translate(547 184) rotate(62.4472) scale(12.9711 16.3594)">
<stop offset="0.245" stop-color="#C2B84B"/>
<stop offset="0.845" stop-color="#FFFEDA" stop-opacity="0.155"/>
<stop offset="1" stop-color="#FFF500" stop-opacity="0"/>
</radialGradient>
<radialGradient id="paint43_radial_2_34" cx="0" cy="0" r="1" gradientUnits="userSpaceOnUse" gradientTransform="translate(525 175) rotate(62.4472) scale(12.9711 16.3594)">
<stop offset="0.245" stop-color="#C2B84B"/>
<stop offset="0.845" stop-color="#FFFEDA" stop-opacity="0.155"/>
<stop offset="1" stop-color="#FFF500" stop-opacity="0"/>
</radialGradient>
<radialGradient id="paint44_radial_2_34" cx="0" cy="0" r="1" gradientUnits="userSpaceOnUse" gradientTransform="translate(442 184) rotate(62.4472) scale(12.9711 16.3594)">
<stop offset="0.245" stop-color="#C2B84B"/>
<stop offset="0.845" stop-color="#FFFEDA" stop-opacity="0.155"/>
<stop offset="1" stop-color="#FFF500" stop-opacity="0"/>
</radialGradient>
<radialGradient id="paint45_radial_2_34" cx="0" cy="0" r="1" gradientUnits="userSpaceOnUse" gradientTransform="translate(420 175) rotate(62.4472) scale(12.9711 16.3594)">
<stop offset="0.245" stop-color="#C2B84B"/>
<stop offset="0.845" stop-color="#FFFEDA" stop-opacity="0.155"/>
<stop offset="1" stop-color="#FFF500" stop-opacity="0"/>
</radialGradient>
<radialGradient id="paint46_radial_2_34" cx="0" cy="0" r="1" gradientUnits="userSpaceOnUse" gradientTransform="translate(337 184) rotate(62.4472) scale(12.9711 16.3594)">
<stop offset="0.245" stop-color="#C2B84B"/>
<stop offset="0.845" stop-color="#FFFEDA" stop-opacity="0.155"/>
<stop offset="1" stop-color="#FFF500" stop-opacity="0"/>
</radialGradient>
<radialGradient id="paint47_radial_2_34" cx="0" cy="0" r="1" gradientUnits="userSpaceOnUse" gradientTransform="translate(315 175) rotate(62.4472) scale(12.9711 16.3594)">
<stop offset="0.245" stop-color="#C2B84B"/>
<stop offset="0.845" stop-color="#FFFEDA" stop-opacity="0.155"/>
<stop offset="1" stop-color="#FFF500" stop-opacity="0"/>
</radialGradient>
</defs>
</svg>
